<?xml version="1.0" encoding="UTF-8" standalone="no"?>
<!-- Created with Inkscape (http://www.inkscape.org/) -->

<svg
   width="169.88849mm"
   height="143.64554mm"
   viewBox="0 0 169.88849 143.64555"
   version="1.1"
   id="svg1"
   inkscape:version="1.3.2 (091e20e, 2023-11-25, custom)"
   sodipodi:docname="dino.svg"
   xml:space="preserve"
   xmlns:inkscape="http://www.inkscape.org/namespaces/inkscape"
   xmlns:sodipodi="http://sodipodi.sourceforge.net/DTD/sodipodi-0.dtd"
   xmlns="http://www.w3.org/2000/svg"
   xmlns:svg="http://www.w3.org/2000/svg"><sodipodi:namedview
     id="namedview1"
     pagecolor="#ffffff"
     bordercolor="#000000"
     borderopacity="0.25"
     inkscape:showpageshadow="2"
     inkscape:pageopacity="0.0"
     inkscape:pagecheckerboard="0"
     inkscape:deskcolor="#d1d1d1"
     inkscape:document-units="mm"
     inkscape:zoom="0.67726504"
     inkscape:cx="14.765268"
     inkscape:cy="346.24554"
     inkscape:window-width="1920"
     inkscape:window-height="1009"
     inkscape:window-x="-8"
     inkscape:window-y="-8"
     inkscape:window-maximized="1"
     inkscape:current-layer="layer7" /><defs
     id="defs1" /><g
     inkscape:groupmode="layer"
     id="layer2"
     inkscape:label="фон"
     style="display:inline"
     transform="translate(-21.18819,-76.448647)"><rect
       style="display:inline;fill:#fbf5f2;fill-opacity:1;stroke:none;stroke-width:0.200176;stroke-linecap:round;stroke-linejoin:round"
       id="rect1"
       width="169.87085"
       height="143.10638"
       x="21.18819"
       y="76.498924"
       inkscape:label="фон" /></g><g
     inkscape:groupmode="layer"
     id="layer3"
     inkscape:label="Облака"
     style="display:inline"
     transform="translate(-21.18819,-76.448647)"><path
       style="vector-effect:non-scaling-stroke;fill:#ffffff;fill-opacity:1;stroke:none;stroke-width:0.264583;stroke-linecap:round;stroke-linejoin:round;stroke-dasharray:none;-inkscape-stroke:hairline"
       d="m 34.750461,97.310423 c -4.441319,-16.953737 9.269835,-11.370386 8.904521,-7.16928 3.895372,-2.146413 5.297047,0.958948 5.845016,3.013837 2.968175,-3.013837 5.75369,-0.365312 6.849631,0.730629 3.333488,-2.831181 7.488932,1.598245 6.849632,3.744462 -0.913283,0.365316 -13.653598,0.182659 -13.653598,0.182659 0,0 -10.21689,-0.03335 -14.795202,-0.502307 z"
       id="path1"
       sodipodi:nodetypes="ccccccc" /><path
       style="vector-effect:non-scaling-stroke;fill:#ffffff;fill-opacity:1;stroke:none;stroke-width:0.264583;stroke-linecap:round;stroke-linejoin:round;stroke-dasharray:none;-inkscape-stroke:hairline"
       d="m 39.141829,181.26305 c -4.441319,-16.95374 9.269835,-11.37039 8.904521,-7.16928 3.895372,-2.14642 5.297047,0.95894 5.845016,3.01383 2.968175,-3.01383 5.75369,-0.36531 6.849631,0.73063 3.333488,-2.83118 7.488932,1.59825 6.849632,3.74446 -0.913283,0.36532 -13.653598,0.18266 -13.653598,0.18266 0,0 -10.21689,-0.0334 -14.795202,-0.5023 z"
       id="path2"
       sodipodi:nodetypes="ccccccc" /><path
       style="vector-effect:non-scaling-stroke;fill:#ffffff;fill-opacity:1;stroke:none;stroke-width:0.264583;stroke-linecap:round;stroke-linejoin:round;stroke-dasharray:none;-inkscape-stroke:hairline"
       d="m 174.22926,137.34937 c 4.44132,-16.95374 -9.26984,-11.37039 -8.90452,-7.16928 -3.89537,-2.14642 -5.29705,0.95894 -5.84502,3.01383 -2.96817,-3.01383 -5.75369,-0.36531 -6.84963,0.73063 -3.33349,-2.83118 -7.48893,1.59825 -6.84963,3.74446 0.91328,0.36532 13.6536,0.18266 13.6536,0.18266 0,0 10.21689,-0.0334 14.7952,-0.5023 z"
       id="path3"
       sodipodi:nodetypes="ccccccc" /><path
       style="vector-effect:non-scaling-stroke;fill:#ffffff;fill-opacity:1;stroke:none;stroke-width:0.264583;stroke-linecap:round;stroke-linejoin:round;stroke-dasharray:none;-inkscape-stroke:hairline"
       d="m 180.17052,171.70537 c 4.44132,-16.95374 -9.26984,-11.37039 -8.90452,-7.16928 -3.89537,-2.14642 -5.29705,0.95894 -5.84502,3.01383 -2.96817,-3.01383 -5.75369,-0.36531 -6.84963,0.73063 -3.33349,-2.83118 -7.48893,1.59825 -6.84963,3.74446 0.91328,0.36532 13.6536,0.18266 13.6536,0.18266 0,0 10.21689,-0.0334 14.7952,-0.5023 z"
       id="path4"
       sodipodi:nodetypes="ccccccc" /></g><g
     inkscape:groupmode="layer"
     id="layer4"
     inkscape:label="Земля"
     style="display:inline"
     transform="translate(-21.18819,-76.448647)"><path
       style="display:inline;opacity:1;vector-effect:non-scaling-stroke;fill:#72bfc7;fill-opacity:1;stroke:none;stroke-width:0.264583;stroke-linecap:round;stroke-linejoin:round;stroke-dasharray:none;-inkscape-stroke:hairline"
       d="m 39.263996,215.30618 c -17.69463,-8.78273 -16.61109,-9.23574 14.982312,-12.01168 24.777534,-0.85031 78.142002,-2.76524 101.282212,-2.72149 43.8,1.93357 28.2929,9.35667 7.50767,16.19823 -21.07861,6.93813 -123.772194,-1.46506 -123.772194,-1.46506 z"
       id="path5"
       sodipodi:nodetypes="cccsc"
       sodipodi:insensitive="true" /><path
       style="display:inline;opacity:1;vector-effect:non-scaling-stroke;fill:#338f9b;fill-opacity:1;stroke:none;stroke-width:0.264583;stroke-linecap:round;stroke-linejoin:round;stroke-dasharray:none;-inkscape-stroke:hairline"
       d="m 87.891937,214.07919 c -24.862892,-0.19374 -38.682786,-3.42269 -25.702419,-4.45595 10.384397,-0.82662 74.846992,-0.77495 93.574892,-0.77495 6.45789,0 33.06441,1.67905 9.04104,4.77884 -26.31178,3.39507 -76.913513,0.45206 -76.913513,0.45206 z"
       id="path6"
       sodipodi:nodetypes="csssc"
       sodipodi:insensitive="true" /><g
       inkscape:groupmode="layer"
       id="layer5"
       inkscape:label="Трава"
       sodipodi:insensitive="true"
       style="display:inline"><path
         style="display:inline;vector-effect:non-scaling-stroke;fill:#277c82;fill-opacity:1;stroke:none;stroke-width:0.264583;stroke-linecap:round;stroke-linejoin:round;stroke-dasharray:none;-inkscape-stroke:hairline"
         id="path22"
         d="m 39.793015,212.50031 c -0.04411,0.0607 -0.03296,0.13299 -0.02923,0.20317 0.0071,0.13343 -0.0027,0.0332 0.01484,0.17544 0.01201,0.10813 0.02069,0.21622 0.04109,0.32326 0.0092,0.0481 0.01548,0.0972 0.03127,0.14354 0.01651,0.0485 0.03061,0.10131 0.06501,0.13928 0.04433,0.0489 0.108717,0.0749 0.163075,0.1124 0.02379,0.0501 0.04358,0.10235 0.07133,0.15039 0.02664,0.0461 0.05907,0.0888 0.09129,0.13121 0.06259,0.0824 0.1089,0.13858 0.193969,0.19663 0.05413,0.0369 0.104497,0.0529 0.163721,0.0755 0.0071,0.005 0.09755,0.0261 0.106418,0.0346 0.008,0.008 0.01646,0.0707 0.01757,0.0802 -0.0063,0.0325 -0.004,0.066 -0.0092,0.0985 -0.0038,0.0236 -0.01238,0.0463 -0.01537,0.07 -0.003,0.024 -0.0019,0.0483 -0.0026,0.0725 -5.1e-5,0.0114 0.161485,0.0121 0.161538,8e-4 v 0 c -5.29e-4,-0.0258 0.0019,-0.0518 -0.0019,-0.0774 -0.0037,-0.0258 -0.01333,-0.0505 -0.01992,-0.0757 -0.02027,-0.0775 -0.0067,-0.0398 -0.03732,-0.10843 -0.0016,-0.003 -0.02982,-0.0592 -0.03332,-0.0647 -0.0061,-0.01 -0.01471,-0.0173 -0.02053,-0.0271 -0.0045,-0.007 -0.0062,-0.0163 -0.01011,-0.0241 -0.0053,-0.0103 -0.01164,-0.02 -0.01746,-0.03 -0.0063,-0.0128 -0.01267,-0.0256 -0.01902,-0.0383 -0.01884,-0.0408 -0.03461,-0.0829 -0.05365,-0.12353 -0.05135,-0.10965 -0.05087,-0.0956 -0.116893,-0.20705 -0.147908,-0.24977 0.01304,0.0104 -0.147167,-0.24494 0.01386,-0.0532 0.04032,-0.10466 0.04162,-0.15964 0.0016,-0.0643 -0.06441,-0.18784 -0.08827,-0.24324 -0.04481,-0.10403 -0.08286,-0.21103 -0.132334,-0.31307 -0.0071,-0.0121 -0.05702,-0.0965 -0.06464,-0.1145 -0.01685,-0.0398 -0.01072,-0.0578 -0.02299,-0.10074 -0.01458,-0.051 -0.02032,-0.0521 -0.04943,-0.0928 -0.0027,-0.0192 -0.274058,0.0187 -0.27138,0.0379 z" /><path
         style="display:inline;vector-effect:non-scaling-stroke;fill:#277c82;fill-opacity:1;stroke:none;stroke-width:0.264583;stroke-linecap:round;stroke-linejoin:round;stroke-dasharray:none;-inkscape-stroke:hairline"
         id="path23"
         d="m 41.587766,212.30933 c -0.01982,0.0191 -0.04373,0.0346 -0.05942,0.0572 -0.04711,0.0678 -0.07951,0.17214 -0.100471,0.24846 -0.02799,0.10191 -0.06232,0.26191 -0.06732,0.36622 -0.0029,0.0609 0.0059,0.12189 0.0088,0.18283 0.0055,0.0556 -0.01019,0.11756 0.01633,0.1667 0.03285,0.0609 0.113602,0.0843 0.150638,0.14276 0.0217,0.0342 0.01302,0.0801 0.01625,0.1205 0.0088,0.11074 7.7e-5,0.11276 -0.01246,0.22463 -0.0044,0.0397 -0.0079,0.0796 -0.01185,0.11942 -0.01423,0.10907 -0.0209,0.1466 -0.02824,0.25569 -0.0027,0.0394 -0.0013,0.0791 -0.0051,0.11843 -0.0037,0.0368 -0.01238,0.073 -0.01738,0.10968 -0.008,0.0586 -0.01349,0.11754 -0.02119,0.17619 -0.01064,0.0362 -0.0019,0.0985 -0.02795,0.12972 -0.003,0.002 0.01765,0.0441 0.02064,0.0426 v 0 c 0.01196,-7.9e-4 0.02418,5.3e-4 0.03586,-0.002 0.06602,-0.0151 0.111395,-0.0639 0.153077,-0.11387 0.04728,-0.0796 0.0665,-0.1012 0.09329,-0.19393 0.01175,-0.0407 0.01746,-0.0829 0.02521,-0.12458 0.02342,-0.12575 0.03779,-0.25212 0.02804,-0.38032 0.0024,-0.0393 0.0052,-0.0787 0.0075,-0.11803 0.0024,-0.0393 0.0021,-0.0788 0.0064,-0.118 0.0044,-0.0392 0.01267,-0.0779 0.02003,-0.11675 0.008,-0.0422 0.0021,-0.0904 0.02596,-0.12608 0.039,-0.0583 0.119475,-0.0821 0.154204,-0.14303 0.02648,-0.0464 0.01214,-0.10622 0.0182,-0.15934 0.0052,-0.0584 0.01548,-0.1166 0.01561,-0.17525 1.32e-4,-0.0621 -0.008,-0.12392 -0.01482,-0.18561 -0.0062,-0.056 -0.01479,-0.11169 -0.02408,-0.16724 -0.01453,-0.087 -0.02921,-0.17188 -0.06471,-0.25323 -0.01289,-0.0295 -0.03221,-0.0558 -0.04831,-0.0837 0,-0.0207 -0.292749,-0.0207 -0.292749,0 z" /><path
         style="display:inline;vector-effect:non-scaling-stroke;fill:#277c82;fill-opacity:1;stroke:none;stroke-width:0.264583;stroke-linecap:round;stroke-linejoin:round;stroke-dasharray:none;-inkscape-stroke:hairline"
         id="path24"
         d="m 43.004599,212.53283 c -0.02709,0.0786 -0.05928,0.15562 -0.078,0.2369 -0.01045,0.0454 -0.01532,0.0919 -0.02424,0.13758 -0.0441,0.22624 -0.02569,0.0702 -0.04281,0.29768 -0.0019,0.27428 -0.03251,-0.0128 0.141013,0.26128 0.01532,0.0242 -0.0036,0.0571 -0.0056,0.0857 -0.0016,0.022 -0.0026,0.0442 -0.0052,0.0661 -0.0016,0.0138 0.0016,0.0303 -0.0074,0.0409 -0.01558,0.0184 -0.04045,0.0262 -0.06068,0.0393 -0.148952,0.0841 -0.07059,0.0328 -0.216585,0.14709 -0.046,0.036 -0.09656,0.0668 -0.138255,0.10773 -0.06001,0.0589 -0.143542,0.17991 -0.181981,0.25775 -0.01672,0.0339 -0.02596,0.0709 -0.03894,0.10637 -0.006,0.0414 -0.01873,0.0879 -0.0077,0.13067 0.0021,0.008 0.01188,0.0123 0.01434,0.0202 0.0021,0.007 -0.01058,0.002 -0.02715,0.003 -0.01048,8e-4 -0.02077,0.003 -0.03116,0.005 -0.07011,0.0273 -0.01529,0.003 -0.0875,0.0433 -0.08483,0.047 -0.09394,0.04 -0.163539,0.11379 -0.02368,0.0251 -0.04215,0.0547 -0.06323,0.082 -0.0078,0.0131 0.178091,0.12301 0.185859,0.10986 v 0 c 0.04331,-0.0616 0.07102,-0.093 0.09853,-0.16376 0.0094,-0.0243 0.0098,-0.0516 0.01947,-0.0759 0.0094,-0.0237 0.03321,-0.0396 0.04337,-0.063 0.01259,-0.0132 0.02545,-0.0321 0.04611,-0.0316 0.01283,2.6e-4 0.02545,0.006 0.03825,0.004 0.04778,-0.004 0.0928,-0.0279 0.135736,-0.0456 0.03464,-0.0219 0.07164,-0.0404 0.103907,-0.0657 0.0713,-0.0558 0.165928,-0.15478 0.215704,-0.22924 0.03105,-0.0464 0.05266,-0.0986 0.07897,-0.14784 0.07993,-0.14966 0.04798,-0.0757 0.0993,-0.22119 0.01111,-0.0216 0.01736,-0.0466 0.03334,-0.0649 0.17781,-0.20425 -0.07454,0.15857 0.121086,-0.10819 0.02323,-0.0317 0.03086,-0.0756 0.06104,-0.10076 0.258683,-0.21524 0.16211,0.0206 0.23,-0.27349 0.0033,-0.0612 0.01355,-0.12248 0.0098,-0.18368 -0.0039,-0.0631 -0.01773,-0.12537 -0.03257,-0.18682 -0.03266,-0.13522 -0.09279,-0.26662 -0.189394,-0.36788 -0.0024,-0.0194 -0.276137,0.0134 -0.273817,0.0328 z" /><path
         style="display:inline;vector-effect:non-scaling-stroke;fill:#277c82;fill-opacity:1;stroke:none;stroke-width:0.264583;stroke-linecap:round;stroke-linejoin:round;stroke-dasharray:none;-inkscape-stroke:hairline"
         id="path25"
         d="m 88.072914,212.44126 c -0.01595,0.0212 -0.03432,0.0408 -0.04788,0.0636 -0.0177,0.0298 -0.03203,0.0615 -0.04547,0.0934 -0.01699,0.0403 -0.03472,0.0807 -0.04569,0.12307 -0.032,0.12359 -0.02716,0.252 -0.02215,0.378 0.08344,0.0497 -0.04301,0.11396 -0.01603,0.16044 0.03179,0.0548 0.11611,0.0725 0.136062,0.13254 0.01238,0.0373 -0.04076,0.0674 -0.05791,0.10281 -0.03798,0.0784 -0.05595,0.14239 -0.08305,0.22483 -0.0074,0.0377 -0.01781,0.075 -0.02212,0.11325 -0.009,0.0801 -0.0024,0.0943 0.01236,0.1663 0.0035,0.0169 0.0071,0.0337 0.01085,0.0505 0.0024,0.0103 0.0074,0.0202 0.007,0.0307 -2.46e-4,0.008 -0.0058,0.0148 -0.0087,0.0223 -0.03092,0.0378 -0.07507,0.0615 -0.108257,0.0969 -0.03256,0.0347 -0.04507,0.0614 -0.06918,0.10236 -0.0094,0.0378 -0.02815,0.0726 -0.03861,0.11009 -0.0079,0.0282 -0.01177,0.0573 -0.01876,0.0857 -0.0021,0.006 0.08117,0.0341 0.08316,0.0282 v 0 c 0.01527,-0.0256 0.03365,-0.0492 0.04835,-0.0751 0.01484,-0.0261 0.03348,-0.0726 0.04527,-0.10066 0.01302,-0.0334 0.02741,-0.0662 0.03975,-0.0998 0.0051,-0.0139 0.0075,-0.0287 0.01357,-0.0422 0.01664,-0.037 0.01728,-0.0218 0.0425,-0.0508 0.0081,-0.009 0.01431,-0.0202 0.02148,-0.0303 0.02117,-0.0362 0.04583,-0.0701 0.06907,-0.10513 0.01267,-0.0191 0.02761,-0.0368 0.03895,-0.0567 0.03415,-0.06 0.04991,-0.10931 0.07479,-0.17427 0.01003,-0.0261 0.07481,-0.19312 0.08231,-0.21761 0.01164,-0.038 -0.0037,-0.0921 0.0282,-0.11579 0.05791,-0.043 0.150675,-0.0157 0.208002,-0.0595 0.06616,-0.0505 0.0077,-0.18602 0.07499,-0.23814 0.01095,-0.0423 0.02471,-0.084 0.03284,-0.12697 0.02913,-0.15407 0.02667,-0.27109 -0.01725,-0.42191 -0.01061,-0.0364 -0.02254,-0.0728 -0.03991,-0.10646 -0.01217,-0.0236 -0.03192,-0.0424 -0.04789,-0.0636 0,-0.0269 -0.380703,-0.0269 -0.380703,0 z" /><path
         style="display:inline;vector-effect:non-scaling-stroke;fill:#277c82;fill-opacity:1;stroke:none;stroke-width:0.264583;stroke-linecap:round;stroke-linejoin:round;stroke-dasharray:none;-inkscape-stroke:hairline"
         id="path26"
         d="m 86.735548,212.56895 c -0.01474,0.0109 -0.03122,0.0198 -0.04425,0.0328 -0.08773,0.0871 -0.133118,0.22132 -0.154401,0.34059 -0.0061,0.0342 -0.0078,0.0691 -0.01169,0.10368 -0.0104,0.1371 -0.0082,0.0725 -0.0079,0.20776 9.8e-5,0.0339 -0.02135,0.0757 5.29e-4,0.10158 0.04188,0.0498 0.131032,0.0457 0.168262,0.0991 0.02296,0.0329 -0.01082,0.0795 -0.01596,0.11936 -0.0059,0.0455 -0.0114,0.0911 -0.01709,0.1366 -0.0031,0.12622 0.004,0.25332 0.02069,0.37853 0.01106,0.083 0.02906,0.16594 0.04593,0.24795 0.0016,0.067 -0.0024,0.0732 0.01492,0.13748 0.005,0.0187 0.01328,0.0364 0.01924,0.0548 0.0083,0.0256 0.02676,0.0922 0.03372,0.11691 0.0028,0.008 0.123103,-0.0315 0.120274,-0.04 v 0 c -0.01905,-0.0343 -0.0348,-0.0544 -0.03995,-0.0937 -0.0021,-0.0167 7.94e-4,-0.0337 7.94e-4,-0.0506 -1.1e-5,-0.0534 -0.0011,-0.0674 -0.0031,-0.12237 0.0204,-0.0814 0.04283,-0.1637 0.05733,-0.24637 0.02225,-0.12693 0.03319,-0.25655 0.02913,-0.38536 -0.0067,-0.0469 -0.01241,-0.0939 -0.02011,-0.14063 -0.0068,-0.0413 -0.04434,-0.0871 -0.02341,-0.12333 0.03158,-0.0547 0.11717,-0.0575 0.156395,-0.10699 0.01696,-0.0214 -0.0059,-0.0543 -0.007,-0.0816 -0.0016,-0.0427 0.0021,-0.10656 0.0042,-0.14916 0.01469,-0.0913 0.01093,-0.0632 0.02289,-0.15723 0.0061,-0.0478 0.01635,-0.11161 0.01233,-0.16075 -0.0037,-0.0454 -0.01487,-0.0692 -0.02956,-0.10915 0.0078,-0.0235 -0.324246,-0.13337 -0.332015,-0.10989 z" /><path
         style="display:inline;vector-effect:non-scaling-stroke;fill:#277c82;fill-opacity:1;stroke:none;stroke-width:0.264583;stroke-linecap:round;stroke-linejoin:round;stroke-dasharray:none;-inkscape-stroke:hairline"
         id="path27"
         d="m 85.4849,212.85725 c -0.01103,0.0115 -0.02638,0.0201 -0.03309,0.0345 -0.04007,0.0863 -0.03549,0.15012 -0.04714,0.24467 -0.0086,0.0697 -0.05287,0.14319 -0.02793,0.20886 0.234546,0.25621 0.161388,0.11243 0.238414,0.42117 0.0498,0.17235 0.121655,0.2906 0.241821,0.41922 0.06117,0.0655 0.07019,0.0505 0.09625,0.13508 0.0028,0.0113 0.008,0.0223 0.0084,0.0339 0.0037,0.1095 -0.03155,-0.003 -0.0062,0.1642 0.0069,0.0457 0.02027,0.0906 0.03772,0.1333 0.03977,0.0975 0.134535,0.2377 0.187044,0.32114 0.142058,0.16447 0.30887,0.30877 0.506193,0.40346 0.05098,0.0245 0.106225,0.0388 0.159338,0.0582 0.01685,0.0162 0.245882,-0.22227 0.22902,-0.23846 v 0 c -0.03058,-0.0393 -0.05762,-0.0817 -0.09175,-0.11796 -0.13783,-0.14654 -0.310619,-0.25053 -0.47615,-0.3616 -0.21305,-0.12182 -0.108323,-0.0484 -0.272484,-0.18725 -0.0316,-0.0267 -0.0629,-0.0538 -0.09544,-0.0794 -0.04769,-0.0375 -0.08468,-0.0411 -0.09626,-0.1001 -0.0026,-0.0135 0.0024,-0.0275 0.0035,-0.0412 -7.93e-4,-0.0362 -0.0033,-0.0647 0.0048,-0.10097 0.0054,-0.0243 0.01601,-0.0471 0.02209,-0.0712 0.03846,-0.15232 0.05153,-0.30304 0.01939,-0.4589 -0.05948,-0.30584 -0.0671,-0.14861 0.04556,-0.47004 -0.004,-0.0712 -0.07601,-0.12076 -0.112382,-0.18214 -0.02506,-0.0423 -0.04408,-0.0883 -0.07187,-0.12885 -9e-5,-1.3e-4 -0.120118,-0.13758 -0.131929,-0.1511 -0.0079,-0.0238 -0.344829,0.0877 -0.336941,0.11152 z" /><path
         style="display:inline;vector-effect:non-scaling-stroke;fill:#277c82;fill-opacity:1;stroke:none;stroke-width:0.264583;stroke-linecap:round;stroke-linejoin:round;stroke-dasharray:none;-inkscape-stroke:hairline"
         id="path28"
         d="m 163.40217,212.06845 c -0.0484,0.0192 -0.12793,0.051 -0.17248,0.0681 -0.0697,0.0267 -0.1423,0.0465 -0.20935,0.0793 -0.13383,0.0654 -0.35976,0.21979 -0.47227,0.30701 -0.0849,0.0658 -0.16411,0.13877 -0.24617,0.20815 -0.024,0.0255 -0.35848,0.37228 -0.37486,0.42146 -0.0294,0.0881 0.0241,0.18647 0.0113,0.27849 -0.007,0.0531 -0.0495,0.0954 -0.0701,0.14488 -10e-4,0.003 -0.0545,0.1676 -0.0606,0.18639 -0.029,0.0549 -0.0593,0.1105 -0.10189,0.15649 -0.0171,0.0185 -0.0374,0.0337 -0.0547,0.0519 -0.0418,0.0439 -0.0718,0.0843 -0.10917,0.13181 -0.0609,0.0806 -0.0319,0.0407 -0.0871,0.11965 -0.004,0.006 0.0863,0.0672 0.0906,0.0608 v 0 c 0.072,-0.0708 0.0359,-0.0332 0.10801,-0.11323 0.0526,-0.0729 0.0466,-0.0623 0.094,-0.13683 0.0295,-0.0463 0.0429,-0.0736 0.0765,-0.11517 0.0134,-0.0166 0.0289,-0.0314 0.0428,-0.0475 0.0152,-0.0177 0.0298,-0.0359 0.0447,-0.0539 0.0898,-0.0781 0.0286,-0.0301 0.14939,-0.10784 0.044,-0.0284 0.0807,-0.0734 0.13153,-0.0861 0.0977,-0.0242 0.2066,0.0128 0.30134,-0.0213 0.17224,-0.062 0.25581,-0.28395 0.42977,-0.3419 0.16255,-0.15597 0.26493,-0.24916 0.41649,-0.41401 0.0568,-0.0617 0.11585,-0.12208 0.1647,-0.19027 0.0392,-0.0548 0.0641,-0.11857 0.0982,-0.17669 0.0957,-0.16326 0.0311,-0.0306 0.0863,-0.14978 0.0184,-0.0203 -0.26854,-0.28011 -0.28691,-0.25982 z" /><path
         style="display:inline;vector-effect:non-scaling-stroke;fill:#277c82;fill-opacity:1;stroke:none;stroke-width:0.264583;stroke-linecap:round;stroke-linejoin:round;stroke-dasharray:none;-inkscape-stroke:hairline"
         id="path29"
         d="m 161.73987,211.7724 c -0.11076,0.1083 -0.23152,0.20544 -0.33137,0.32492 -0.11579,0.13855 -0.167,0.23386 -0.26123,0.38672 -0.0697,0.12488 -0.1235,0.21097 -0.17563,0.34372 -0.0191,0.0487 -0.0328,0.0994 -0.047,0.14982 -0.0156,0.0553 -0.0385,0.15169 -0.0426,0.21233 -0.002,0.0261 0.002,0.0524 0.003,0.0786 0.0409,0.01 -0.0254,0.14855 0.028,0.16809 0.0493,0.018 0.10666,-0.0158 0.15743,-0.002 0.0195,0.005 0.009,0.16976 0.008,0.18392 -0.0128,0.12667 -0.009,0.0625 -0.0125,0.1924 1e-5,0.0109 0.15382,0.0108 0.15382,-5e-5 v 0 c -0.004,-0.13719 0.003,-0.0694 -0.0205,-0.20326 -0.0226,-0.089 -0.0139,-0.068 -0.0455,-0.14652 -0.006,-0.0158 -0.0309,-0.0337 -0.0202,-0.047 0.0316,-0.0392 0.084,-0.0555 0.12562,-0.0839 0.001,-7.9e-4 -0.003,5.3e-4 -0.004,8e-4 -7.9e-4,0.009 -0.002,0.0173 -0.002,0.0259 0.009,-0.003 0.0199,-0.004 0.028,-0.0102 0.0195,-0.0137 0.0359,-0.0312 0.0535,-0.0473 0.0276,-0.0251 0.0549,-0.0505 0.0821,-0.0761 0.13503,-0.12649 0.26077,-0.26115 0.37023,-0.411 0.10161,-0.1567 0.17863,-0.25787 0.24638,-0.43462 0.0727,-0.1896 0.10183,-0.40342 0.0778,-0.60489 0,-0.0262 -0.37081,-0.0262 -0.37081,0 z" /><path
         style="display:inline;vector-effect:non-scaling-stroke;fill:#277c82;fill-opacity:1;stroke:none;stroke-width:0.264583;stroke-linecap:round;stroke-linejoin:round;stroke-dasharray:none;-inkscape-stroke:hairline"
         id="path30"
         d="m 160.29609,211.19863 c -0.096,0.0887 -0.14574,0.12819 -0.23038,0.24905 -0.0528,0.0754 -0.0955,0.15736 -0.14094,0.23742 -0.11853,0.20902 -0.17255,0.30407 -0.25185,0.53054 -0.0284,0.0811 -0.0474,0.16526 -0.0712,0.24789 -0.0114,0.0737 -0.0274,0.14688 -0.0341,0.22116 -0.0157,0.17225 0.007,0.35517 0.0677,0.51744 0.009,0.0253 0.0229,0.0489 0.0344,0.0733 -0.003,0.0198 -0.0191,0.14143 -0.0154,0.14678 0.0337,0.0489 0.11627,0.0536 0.14261,0.10684 0.0216,0.0437 -0.0136,0.0965 -0.018,0.14501 -0.0128,0.14055 -0.009,0.15954 -0.008,0.29804 0.0154,0.15249 0.005,0.0815 0.03,0.21325 -5.3e-4,0.01 0.13879,0.0169 0.13929,0.007 v 0 c 0.0413,-0.13049 0.0225,-0.0597 0.0534,-0.21305 0.0118,-0.13335 0.02,-0.16924 0.011,-0.30556 -0.003,-0.0508 -0.0368,-0.10417 -0.0184,-0.15168 0.0233,-0.0602 0.10865,-0.0817 0.13181,-0.142 0.0117,-0.0304 -0.0601,-0.1946 -0.072,-0.22392 -0.002,-0.0115 -0.0126,-0.0571 -0.009,-0.0694 0.003,-0.0117 0.013,-0.0204 0.0198,-0.0304 0.0155,-0.0229 0.031,-0.0458 0.0471,-0.0682 0.14809,-0.20583 0.0281,-0.0267 0.1909,-0.28002 0.0429,-0.0732 0.0893,-0.14443 0.12871,-0.21956 0.10748,-0.20496 0.16338,-0.34101 0.22695,-0.56545 0.0255,-0.0901 0.0488,-0.18135 0.0618,-0.27411 0.0245,-0.1744 0.0108,-0.23854 -0.005,-0.39744 0.004,-0.0291 -0.40774,-0.0821 -0.41149,-0.0531 z" /></g></g><g
     inkscape:groupmode="layer"
     id="layer6"
     inkscape:label="Дино"
     style="display:inline"
     transform="translate(-21.18819,-76.448647)"><path
       style="display:inline;opacity:1;vector-effect:non-scaling-stroke;fill:#539d85;fill-opacity:1;stroke:none;stroke-width:0.264583;stroke-linecap:round;stroke-linejoin:round;stroke-dasharray:none;-inkscape-stroke:hairline"
       d="m 87.956515,211.94808 c 0,0 -22.085997,1.67905 -25.056628,0.25832 -1.453025,-12.85121 19.438261,-8.78274 21.052734,-8.52442 -10.849261,-6.78079 -9.858171,-13.33912 -9.858171,-14.88901 4.520528,6.52247 15.463094,10.96946 18.950359,11.22778 2.647736,5.10173 5.631811,5.85691 5.11518,7.53596 -0.516633,1.67905 -10.203474,4.39137 -10.203474,4.39137 z"
       id="path31"
       sodipodi:nodetypes="cccccsc"
       inkscape:label="правая нога" /><g
       inkscape:groupmode="layer"
       id="layer7"
       inkscape:label="Гребень"
       style="display:inline"><path
         style="display:inline;vector-effect:non-scaling-stroke;fill:#539d85;fill-opacity:1;stroke:none;stroke-width:0.264583;stroke-linecap:round;stroke-linejoin:round;stroke-dasharray:none;-inkscape-stroke:hairline"
         d="m 60.264758,111.62788 c 0,0 -0.140591,-2.54386 0.06811,-4.94347 2.420532,1.89489 2.825329,4.47209 2.825329,4.47209 z"
         id="path33"
         sodipodi:nodetypes="cccc" /><path
         style="vector-effect:non-scaling-stroke;fill:#539d85;fill-opacity:1;stroke:none;stroke-width:0.264583;stroke-linecap:round;stroke-linejoin:round;stroke-dasharray:none;-inkscape-stroke:hairline"
         d="m 63.384228,111.07658 c 0.290605,-0.6135 1.621881,-3.33552 3.115935,-3.18132 -0.720086,3.25878 -0.37133,5.21475 -0.37133,5.21475 z"
         id="path34"
         sodipodi:nodetypes="cccc" /><path
         style="vector-effect:non-scaling-stroke;fill:#539d85;fill-opacity:1;stroke:none;stroke-width:0.264583;stroke-linecap:round;stroke-linejoin:round;stroke-dasharray:none;-inkscape-stroke:hairline"
         d="m 69.293949,119.06427 c 0.387471,-0.0646 4.600501,-0.72337 5.569188,0.24532 -2.308698,1.24314 -4.181488,2.77689 -4.859568,4.10077 -0.58121,-2.11497 -0.70962,-4.34609 -0.70962,-4.34609 z"
         id="path35"
         sodipodi:nodetypes="cccc" /><path
         style="vector-effect:non-scaling-stroke;fill:#539d85;fill-opacity:1;stroke:none;stroke-width:0.264583;stroke-linecap:round;stroke-linejoin:round;stroke-dasharray:none;-inkscape-stroke:hairline"
         d="m 70.165017,125.63833 c 2.461622,-0.007 2.456886,-0.25215 3.842448,-0.0484 -1.449921,2.44686 -2.96829,4.29254 -2.96829,4.29254 0,0 -1.717683,-3.21019 -0.874158,-4.24413 z"
         id="path36"
         sodipodi:nodetypes="ccccc" /><path
         style="vector-effect:non-scaling-stroke;fill:#539d85;fill-opacity:1;stroke:none;stroke-width:0.264583;stroke-linecap:round;stroke-linejoin:round;stroke-dasharray:none;-inkscape-stroke:hairline"
         d="m 70.794663,131.51501 3.907024,0.41976 -3.245091,3.87474 z"
         id="path37"
         sodipodi:nodetypes="cccc" /><path
         style="vector-effect:non-scaling-stroke;fill:#539d85;fill-opacity:1;stroke:none;stroke-width:0.264583;stroke-linecap:round;stroke-linejoin:round;stroke-dasharray:none;-inkscape-stroke:hairline"
         d="m 71.876361,137.19796 c 0.484341,-0.25832 3.636342,-1.22809 5.29547,-0.6135 -2.812963,2.40665 -3.987748,4.1492 -4.843419,5.06944 -0.535319,-2.50184 -0.452051,-4.45594 -0.452051,-4.45594 z"
         id="path38"
         sodipodi:nodetypes="cccc" /><path
         style="vector-effect:non-scaling-stroke;fill:#539d85;fill-opacity:1;stroke:none;stroke-width:0.264583;stroke-linecap:round;stroke-linejoin:round;stroke-dasharray:none;-inkscape-stroke:hairline"
         d="m 72.199256,143.2038 4.568958,0.0161 -3.471117,4.47209 z"
         id="path39"
         sodipodi:nodetypes="cccc" /><path
         style="vector-effect:non-scaling-stroke;fill:#539d85;fill-opacity:1;stroke:none;stroke-width:0.264583;stroke-linecap:round;stroke-linejoin:round;stroke-dasharray:none;-inkscape-stroke:hairline"
         d="m 73.357687,149.49043 c 0,0 1.529169,-1.5714 5.832237,-2.65406 -1.512379,4.08053 -3.890881,6.66777 -3.890881,6.66777 z"
         id="path40"
         sodipodi:nodetypes="cccc" /><path
         style="vector-effect:non-scaling-stroke;fill:#539d85;fill-opacity:1;stroke:none;stroke-width:0.264583;stroke-linecap:round;stroke-linejoin:round;stroke-dasharray:none;-inkscape-stroke:hairline"
         d="m 75.654227,154.5374 4.262212,-2.47014 -0.936397,7.24898 z"
         id="path41"
         sodipodi:nodetypes="cccc" /><path
         style="vector-effect:non-scaling-stroke;fill:#539d85;fill-opacity:1;stroke:none;stroke-width:0.264583;stroke-linecap:round;stroke-linejoin:round;stroke-dasharray:none;-inkscape-stroke:hairline"
         d="m 79.20607,159.70372 c 0,0 2.171772,-3.24382 3.567987,-2.71232 -0.122866,2.95641 0.500485,4.45595 1.049408,5.36005 0.54892,0.90411 -4.617395,-2.64773 -4.617395,-2.64773 z"
         id="path42"
         sodipodi:nodetypes="ccsc" /><path
         style="vector-effect:non-scaling-stroke;fill:#539d85;fill-opacity:1;stroke:none;stroke-width:0.264583;stroke-linecap:round;stroke-linejoin:round;stroke-dasharray:none;-inkscape-stroke:hairline"
         d="m 84.275516,162.38374 c 0,0 1.016687,-2.93364 3.083644,-6.05428 1.280643,4.46646 1.662907,8.05623 1.662907,8.05623 z"
         id="path43"
         sodipodi:nodetypes="cccc" /><path
         style="vector-effect:non-scaling-stroke;fill:#539d85;fill-opacity:1;stroke:none;stroke-width:0.264583;stroke-linecap:round;stroke-linejoin:round;stroke-dasharray:none;-inkscape-stroke:hairline"
         d="m 103.26172,167.64693 3.22895,-4.908 0.74266,6.68392 z"
         id="path44" /><path
         style="vector-effect:non-scaling-stroke;fill:#539d85;fill-opacity:1;stroke:none;stroke-width:0.264583;stroke-linecap:round;stroke-linejoin:round;stroke-dasharray:none;-inkscape-stroke:hairline"
         d="m 116.98475,176.46195 6.50815,-0.24726 -3.24691,4.31572 z"
         id="path45"
         sodipodi:nodetypes="cccc" /><path
         style="vector-effect:non-scaling-stroke;fill:#539d85;fill-opacity:1;stroke:none;stroke-width:0.264583;stroke-linecap:round;stroke-linejoin:round;stroke-dasharray:none;-inkscape-stroke:hairline"
         d="m 121.27925,182.27406 5.28277,-2.36335 -3.70059,6.62556 z"
         id="path46"
         sodipodi:nodetypes="cccc" /><path
         style="vector-effect:non-scaling-stroke;fill:#539d85;fill-opacity:1;stroke:none;stroke-width:0.264583;stroke-linecap:round;stroke-linejoin:round;stroke-dasharray:none;-inkscape-stroke:hairline"
         d="m 123.18433,187.08519 c 0,0 2.09118,-0.20631 5.53717,-0.0267 -2.00883,2.39764 -3.57793,4.65265 -4.08969,5.5623 -0.49106,0.87284 -1.44748,-5.53555 -1.44748,-5.53555 z"
         id="path47"
         sodipodi:nodetypes="ccscc" /><path
         style="vector-effect:non-scaling-stroke;fill:#539d85;fill-opacity:1;stroke:none;stroke-width:0.264583;stroke-linecap:round;stroke-linejoin:round;stroke-dasharray:none;-inkscape-stroke:hairline"
         d="m 124.92796,193.44622 4.80559,-0.77725 -2.44846,5.29777 z"
         id="path48"
         sodipodi:nodetypes="cccc" /><path
         style="vector-effect:non-scaling-stroke;fill:#539d85;fill-opacity:1;stroke:none;stroke-width:0.264583;stroke-linecap:round;stroke-linejoin:round;stroke-dasharray:none;-inkscape-stroke:hairline"
         d="m 128.18919,198.74169 4.46932,-4.49607 -0.42462,8.82974 z"
         id="path49"
         sodipodi:nodetypes="cccc" /><path
         style="vector-effect:non-scaling-stroke;fill:#539d85;fill-opacity:1;stroke:none;stroke-width:0.264583;stroke-linecap:round;stroke-linejoin:round;stroke-dasharray:none;-inkscape-stroke:hairline"
         d="m 132.93967,202.91324 c 0,0 1.81702,-3.13801 3.33202,-4.03686 0.10033,2.22883 0.65458,4.89329 1.60827,6.22958 -3.09334,-1.27954 -4.94029,-2.19272 -4.94029,-2.19272 z"
         id="path50"
         sodipodi:nodetypes="cccc" /><path
         style="vector-effect:non-scaling-stroke;fill:#539d85;fill-opacity:1;stroke:none;stroke-width:0.264583;stroke-linecap:round;stroke-linejoin:round;stroke-dasharray:none;-inkscape-stroke:hairline"
         d="m 138.65018,205.50833 c 0,0 1.58182,-2.63592 3.24704,-3.72036 0.71653,2.02361 0.90219,4.74737 0.90219,4.74737 z"
         id="path51"
         sodipodi:nodetypes="cccc" /><path
         style="vector-effect:non-scaling-stroke;fill:#539d85;fill-opacity:1;stroke:none;stroke-width:0.264583;stroke-linecap:round;stroke-linejoin:round;stroke-dasharray:none;-inkscape-stroke:hairline"
         d="m 145.759,206.65146 c 0,0 -0.3807,-3.92792 -0.0728,-5.65734 2.05088,1.53265 5.00879,5.04499 5.00879,5.04499 z"
         id="path52"
         sodipodi:nodetypes="cccc" /><path
         style="vector-effect:non-scaling-stroke;fill:#539d85;fill-opacity:1;stroke:none;stroke-width:0.264583;stroke-linecap:round;stroke-linejoin:round;stroke-dasharray:none;-inkscape-stroke:hairline"
         d="m 151.56677,205.71621 c 0,0 -0.97744,-3.5235 -0.83953,-4.42365 2.47442,0.70943 5.13403,2.68002 5.81211,2.42171 0.67808,-0.25832 -4.97258,2.00194 -4.97258,2.00194 z"
         id="path53"
         sodipodi:nodetypes="ccsc" /><path
         style="vector-effect:non-scaling-stroke;fill:#539d85;fill-opacity:1;stroke:none;stroke-width:0.264583;stroke-linecap:round;stroke-linejoin:round;stroke-dasharray:none;-inkscape-stroke:hairline"
         d="m 157.24972,202.90703 c -0.0969,-0.51663 -1.4502,-2.68444 -2.13503,-3.98498 2.91547,-0.12086 4.90571,0.58742 6.06393,1.55124 -1.64355,0.24713 -3.9289,2.43374 -3.9289,2.43374 z"
         id="path54"
         sodipodi:nodetypes="cccc" /><path
         style="vector-effect:non-scaling-stroke;fill:#539d85;fill-opacity:1;stroke:none;stroke-width:0.264583;stroke-linecap:round;stroke-linejoin:round;stroke-dasharray:none;-inkscape-stroke:hairline"
         d="m 161.46982,198.29557 c 0,0 -2.65757,-1.20367 -5.26674,-3.40579 1.05938,-0.91235 7.05248,-1.08838 7.05248,-1.08838 z"
         id="path55"
         sodipodi:nodetypes="cccc" /><path
         style="vector-effect:non-scaling-stroke;fill:#539d85;fill-opacity:1;stroke:none;stroke-width:0.264583;stroke-linecap:round;stroke-linejoin:round;stroke-dasharray:none;-inkscape-stroke:hairline"
         d="m 163.48159,192.05777 -5.42368,-0.0111 c 0,0 4.16439,-3.83137 4.22897,-4.9615 1.18337,3.48195 1.19471,4.97258 1.19471,4.97258 z"
         id="path56"
         sodipodi:nodetypes="cccc" /><path
         style="vector-effect:non-scaling-stroke;fill:#539d85;fill-opacity:1;stroke:none;stroke-width:0.264583;stroke-linecap:round;stroke-linejoin:round;stroke-dasharray:none;-inkscape-stroke:hairline"
         d="m 161.8994,186.37482 -4.99541,0.17482 3.57467,-3.98498 z"
         id="path57"
         sodipodi:nodetypes="cccc" /><path
         style="vector-effect:non-scaling-stroke;fill:#539d85;fill-opacity:1;stroke:none;stroke-width:0.264583;stroke-linecap:round;stroke-linejoin:round;stroke-dasharray:none;-inkscape-stroke:hairline"
         d="m 159.21938,182.24177 -4.4677,1.57272 1.98141,-4.44648 z"
         id="path58"
         sodipodi:nodetypes="cccc" /><path
         style="vector-effect:non-scaling-stroke;fill:#539d85;fill-opacity:1;stroke:none;stroke-width:0.264583;stroke-linecap:round;stroke-linejoin:round;stroke-dasharray:none;-inkscape-stroke:hairline"
         d="m 155.4738,178.07643 c 0,0 -2.86246,1.38796 -4.08577,1.53652 1.00364,-3.93316 1.36167,-4.50786 1.28375,-5.30331 -0.0424,-0.43262 2.80202,3.76679 2.80202,3.76679 z"
         id="path59"
         sodipodi:nodetypes="ccsc" /><path
         style="vector-effect:non-scaling-stroke;fill:#539d85;fill-opacity:1;stroke:none;stroke-width:0.264583;stroke-linecap:round;stroke-linejoin:round;stroke-dasharray:none;-inkscape-stroke:hairline"
         d="m 152.27714,173.78193 -5.3206,2.71461 2.93118,-6.81538 z"
         id="path60"
         sodipodi:nodetypes="cccc" /><path
         style="vector-effect:non-scaling-stroke;fill:#539d85;fill-opacity:1;stroke:none;stroke-width:0.264583;stroke-linecap:round;stroke-linejoin:round;stroke-dasharray:none;-inkscape-stroke:hairline"
         d="m 149.40338,169.32598 -4.88908,-2.41063 c 0,0 3.5267,-2.11543 4.37244,-1.98074 0.58626,0.0934 0.51664,4.39137 0.51664,4.39137 z"
         id="path61"
         sodipodi:nodetypes="ccsc" /><path
         style="vector-effect:non-scaling-stroke;fill:#539d85;fill-opacity:1;stroke:none;stroke-width:0.264583;stroke-linecap:round;stroke-linejoin:round;stroke-dasharray:none;-inkscape-stroke:hairline"
         d="m 148.43632,164.26112 c 0,0 -2.13154,-2.46788 -4.18589,-4.01956 2.66171,-0.56251 4.70089,-0.79616 4.86234,-0.44097 0.16145,0.35518 -0.67645,4.46053 -0.67645,4.46053 z"
         id="path62"
         sodipodi:nodetypes="ccsc" /><path
         style="vector-effect:non-scaling-stroke;fill:#539d85;fill-opacity:1;stroke:none;stroke-width:0.264583;stroke-linecap:round;stroke-linejoin:round;stroke-dasharray:none;-inkscape-stroke:hairline"
         d="m 149.56482,158.34756 c 0,0 -2.08084,-3.04752 -3.35094,-5.05445 2.17756,-0.24886 5.19144,0.82453 5.15915,1.08284 -0.0323,0.25832 -1.80821,3.97161 -1.80821,3.97161 z"
         id="path63"
         sodipodi:nodetypes="ccsc" /><path
         style="vector-effect:non-scaling-stroke;fill:#539d85;fill-opacity:1;stroke:none;stroke-width:0.264583;stroke-linecap:round;stroke-linejoin:round;stroke-dasharray:none;-inkscape-stroke:hairline"
         d="m 152.34172,153.3104 c -0.10859,0.11092 -0.25194,-1.99895 -0.87344,-3.82907 1.26238,-0.13637 3.03683,1.43965 3.00454,1.8917 -0.0323,0.45206 -2.1311,1.93737 -2.1311,1.93737 z"
         id="path64"
         sodipodi:nodetypes="ccsc" /><path
         style="vector-effect:non-scaling-stroke;fill:#539d85;fill-opacity:1;stroke:none;stroke-width:0.264583;stroke-linecap:round;stroke-linejoin:round;stroke-dasharray:none;-inkscape-stroke:hairline"
         d="m 155.53838,150.59809 c -0.35519,0.32289 0.51892,-3.21166 0.51892,-3.21166 0,0 1.57989,1.66176 1.41844,2.01695 -0.16144,0.35518 -1.93736,1.19471 -1.93736,1.19471 z"
         id="path65"
         sodipodi:nodetypes="ccsc" /><path
         style="vector-effect:non-scaling-stroke;fill:#539d85;fill-opacity:1;stroke:none;stroke-width:0.264583;stroke-linecap:round;stroke-linejoin:round;stroke-dasharray:none;-inkscape-stroke:hairline"
         d="m 158.67045,148.85446 c 0.0545,-0.94882 0.69145,-3.16991 0.69145,-3.16991 0,0 1.79484,1.97519 1.56882,2.36267 -0.22603,0.38747 -2.26027,0.80724 -2.26027,0.80724 z"
         id="path66"
         sodipodi:nodetypes="ccsc" /></g><path
       style="display:inline;vector-effect:non-scaling-stroke;fill:#ecc460;fill-opacity:1;stroke:none;stroke-width:0.264583;stroke-linecap:round;stroke-linejoin:round;stroke-dasharray:none;stroke-opacity:1;-inkscape-stroke:hairline"
       d="m 66.037605,180.60814 c 0.168807,-0.74516 0.466771,-1.11481 1.41559,-1.63005 0.448332,0.72793 0.659123,1.59567 0.01567,2.34869 -0.570805,0.22833 -1.431261,-0.71864 -1.431261,-0.71864 z"
       id="path82"
       sodipodi:nodetypes="cccc"
       inkscape:label="Коготь правый"
       sodipodi:insensitive="true" /><path
       style="display:inline;opacity:1;vector-effect:non-scaling-stroke;fill:#77b29f;fill-opacity:1;stroke:none;stroke-width:0.264583;stroke-linecap:round;stroke-linejoin:round;stroke-dasharray:none;-inkscape-stroke:hairline"
       d="m 84.792149,211.91579 c -3.132081,-7.52344 10.687814,-11.01071 21.343341,-8.2984 -2.80919,-1.54989 -3.6214,-2.90348 -4.03619,-2.93834 -9.635096,2.46687 -30.519086,-5.32103 -34.215755,-23.5501 -2.189864,-1.24524 -5.835608,-5.04522 -5.013652,0.55446 0,1.03327 0.159153,5.33599 2.157183,2.69665 2.066525,-0.90411 5.381654,1.72919 -0.593635,4.54403 -3.874739,0.64579 -6.387759,-2.25093 -6.031247,-4.15522 0.525138,-2.80499 1.040067,-4.64287 1.306576,-8.25177 0.288983,-3.91324 3.488606,-2.8023 4.353538,-2.41617 1.769085,0.78977 1.496396,1.39723 2.787973,1.91386 -1.885567,-13.65304 -1.446194,-18.73293 -3.966063,-27.00832 -11.892167,12.38283 -24.68348,2.04594 -24.911801,-4.87017 -3.972786,-1.34508 -2.461836,-7.12473 0.532301,-6.04043 2.62882,-14.48719 16.326046,-20.90141 16.904013,-21.08273 0.212652,-0.86627 -1.02543,-2.17329 0.395309,-5.96342 2.197027,1.64392 4.202218,3.15709 4.125217,4.54269 2.891169,-1.49125 5.411649,-0.11618 6.862381,1.20808 0.163144,-2.7943 3.215768,-3.31658 4.071717,-5.05931 2.397351,8.1228 -1.469484,7.90566 -1.915208,9.11022 0.913284,1.02543 4.542685,30.00111 5.059319,32.71342 0.51663,2.71232 4.649681,9.55769 9.299366,11.88253 4.649684,2.32484 19.857058,5.27944 21.786048,5.5943 5.49918,0.89762 16.02235,11.94019 17.91267,17.90688 1.70518,5.38234 2.25366,11.16619 6.19982,14.61464 2.4805,2.16765 6.92285,4.98342 11.68262,6.31807 3.15155,0.88371 5.85608,0.76119 10.7774,-0.54052 6.89146,-1.82281 9.83602,-6.20827 10.6528,-9.86857 1.5584,-6.98369 -1.71851,-11.50685 -6.88864,-16.72034 -8.92889,-9.00379 -8.76266,-18.52454 -4.13423,-24.52432 5.51911,-7.15436 15.74776,-8.00518 18.03295,-6.25909 -2.96951,-0.11618 -6.47519,-0.0185 -10.33492,4.05042 -8.04593,8.48204 -5.56504,15.23199 -3.19333,18.83474 2.32567,3.53282 18.38569,10.80532 17.62887,23.49986 -0.54828,9.19671 -9.17926,17.8963 -20.63939,18.55883 -7.83116,0.45274 -20.00912,-0.14427 -27.4739,-4.96426 -9.37996,-6.05661 -8.1694,-8.05971 -10.44142,-11.75717 -0.35412,1.05162 -0.0757,3.12911 0.44098,4.93732 0.51663,1.80821 3.30136,4.12607 4.38191,6.6546 0.64403,1.50706 -0.90411,4.35908 -2.97064,4.35908 -4.13305,0 -31.934281,-0.22603 -31.934281,-0.22603 z"
       id="path32"
       sodipodi:nodetypes="cccccccsssccccccccccsssssssssscssssscsssc"
       inkscape:label="Тело" /><path
       style="display:inline;vector-effect:non-scaling-stroke;fill:#ecc460;fill-opacity:1;stroke:none;stroke-width:0.264583;stroke-linecap:round;stroke-linejoin:round;stroke-dasharray:none;stroke-opacity:1;-inkscape-stroke:hairline"
       d="m 77.924047,180.69667 c 0.168807,-0.74516 0.466771,-1.11481 1.41559,-1.63005 0.448332,0.72793 0.659123,1.59567 0.01567,2.34869 -0.570805,0.22833 -1.431261,-0.71864 -1.431261,-0.71864 z"
       id="path83"
       sodipodi:nodetypes="cccc"
       inkscape:label="Коготь левый"
       sodipodi:insensitive="true" /><g
       inkscape:groupmode="layer"
       id="layer8"
       inkscape:label="Пятна"
       style="display:inline"
       sodipodi:insensitive="true"><ellipse
         style="display:inline;opacity:1;vector-effect:non-scaling-stroke;fill:#539d85;fill-opacity:1;stroke:none;stroke-width:0.310282;stroke-linecap:round;stroke-linejoin:round;stroke-dasharray:none;-inkscape-stroke:hairline"
         id="path67"
         cx="39.197292"
         cy="136.39445"
         rx="1.3126203"
         ry="1.477985" /><ellipse
         style="display:inline;opacity:1;vector-effect:non-scaling-stroke;fill:#539d85;fill-opacity:1;stroke:none;stroke-width:0.310282;stroke-linecap:round;stroke-linejoin:round;stroke-dasharray:none;-inkscape-stroke:hairline"
         id="ellipse67"
         cx="57.150238"
         cy="136.91109"
         rx="1.3126203"
         ry="1.477985" /><path
         style="display:inline;opacity:1;vector-effect:non-scaling-stroke;fill:#539d85;fill-opacity:1;stroke:none;stroke-width:0.264583;stroke-linecap:round;stroke-linejoin:round;stroke-dasharray:none;-inkscape-stroke:hairline"
         d="m 51.227243,117.71126 c 1.798664,-1.17946 4.13886,-0.6531 1.097843,1.32387 -2.715757,2.36771 -2.966902,-0.0982 -1.097843,-1.32387 z"
         id="path68"
         sodipodi:nodetypes="scs" /><path
         style="display:inline;opacity:1;vector-effect:non-scaling-stroke;fill:#539d85;fill-opacity:1;stroke:none;stroke-width:0.264583;stroke-linecap:round;stroke-linejoin:round;stroke-dasharray:none;-inkscape-stroke:hairline"
         d="m 55.941506,116.24209 c 0.970173,-0.28106 2.94415,0.025 0.726514,1.17856 -1.94081,0.76939 -2.39823,-0.69427 -0.726514,-1.17856 z"
         id="path69"
         sodipodi:nodetypes="scs" /><path
         style="display:inline;opacity:1;vector-effect:non-scaling-stroke;fill:#539d85;fill-opacity:1;stroke:none;stroke-width:0.264583;stroke-linecap:round;stroke-linejoin:round;stroke-dasharray:none;-inkscape-stroke:hairline"
         d="m 54.698362,114.20785 c 1.389936,-0.4748 2.782702,0.47705 0.726514,1.50146 -1.601771,0.44649 -2.373524,-0.93885 -0.726514,-1.50146 z"
         id="path70"
         sodipodi:nodetypes="scs" /><path
         style="display:inline;opacity:1;vector-effect:non-scaling-stroke;fill:#539d85;fill-opacity:1;stroke:none;stroke-width:0.264583;stroke-linecap:round;stroke-linejoin:round;stroke-dasharray:none;-inkscape-stroke:hairline"
         d="m 62.270243,113.06157 c 5.212167,-0.56234 3.228057,2.55787 0.258317,2.64774 -5.424453,0.16414 -2.16767,-2.44174 -0.258317,-2.64774 z"
         id="path71"
         sodipodi:nodetypes="sss" /><path
         style="display:inline;opacity:1;vector-effect:non-scaling-stroke;fill:#539d85;fill-opacity:1;stroke:none;stroke-width:0.264583;stroke-linecap:round;stroke-linejoin:round;stroke-dasharray:none;-inkscape-stroke:hairline"
         d="m 73.331125,159.04368 c -1.150086,-1.81759 -0.585781,-4.14892 1.341529,-1.0762 2.323282,2.75387 -0.146386,2.96492 -1.341529,1.0762 z"
         id="path72"
         sodipodi:nodetypes="scs" /><path
         style="display:inline;opacity:1;vector-effect:non-scaling-stroke;fill:#539d85;fill-opacity:1;stroke:none;stroke-width:0.264583;stroke-linecap:round;stroke-linejoin:round;stroke-dasharray:none;-inkscape-stroke:hairline"
         d="m 71.938729,154.30617 c -0.265263,-0.97461 0.07283,-2.94336 1.190206,-0.70727 0.737761,1.95305 -0.733136,2.38663 -1.190206,0.70727 z"
         id="path73"
         sodipodi:nodetypes="scs" /><path
         style="display:inline;opacity:1;vector-effect:non-scaling-stroke;fill:#539d85;fill-opacity:1;stroke:none;stroke-width:0.264583;stroke-linecap:round;stroke-linejoin:round;stroke-dasharray:none;-inkscape-stroke:hairline"
         d="m 69.884563,155.51611 c -0.452159,-1.39747 0.522191,-2.77459 1.513063,-0.70203 0.420413,1.60881 -0.977282,2.35797 -1.513063,0.70203 z"
         id="path74"
         sodipodi:nodetypes="scs" /><path
         style="display:inline;opacity:1;vector-effect:non-scaling-stroke;fill:#539d85;fill-opacity:1;stroke:none;stroke-width:0.264583;stroke-linecap:round;stroke-linejoin:round;stroke-dasharray:none;-inkscape-stroke:hairline"
         d="m 68.861434,147.92661 c -0.477597,-5.22062 2.609969,-3.18608 2.651587,-0.21527 0.076,5.4264 -2.476631,2.12772 -2.651587,0.21527 z"
         id="path75"
         sodipodi:nodetypes="sss" /><path
         style="display:inline;opacity:1;vector-effect:non-scaling-stroke;fill:#539d85;fill-opacity:1;stroke:none;stroke-width:0.264583;stroke-linecap:round;stroke-linejoin:round;stroke-dasharray:none;-inkscape-stroke:hairline"
         d="m 108.81948,173.62764 c 0.86539,0.5209 1.98199,2.17724 -0.37116,1.3338 -1.88316,-0.90133 -1.11998,-2.23139 0.37116,-1.3338 z"
         id="path76"
         sodipodi:nodetypes="scs" /><path
         style="display:inline;opacity:1;vector-effect:non-scaling-stroke;fill:#539d85;fill-opacity:1;stroke:none;stroke-width:0.264583;stroke-linecap:round;stroke-linejoin:round;stroke-dasharray:none;-inkscape-stroke:hairline"
         d="m 115.45305,176.11045 c 3.95386,3.44237 0.31636,4.10645 -1.76728,1.98846 -3.80591,-3.86868 0.31888,-3.2495 1.76728,-1.98846 z"
         id="path77"
         sodipodi:nodetypes="sss" /><path
         style="vector-effect:non-scaling-stroke;fill:#539d85;fill-opacity:1;stroke:none;stroke-width:0.264583;stroke-linecap:round;stroke-linejoin:round;stroke-dasharray:none;-inkscape-stroke:hairline"
         d="m 59.348046,111.33409 c -1.482204,-1.22016 -2.034237,-1.25929 -2.744604,-1.80821 -0.387476,1.2593 -0.193737,2.1634 0.452051,2.7769 1.323869,-0.80724 0.989845,-0.82063 2.292553,-0.96869 z"
         id="path78"
         sodipodi:nodetypes="cccc" /><path
         style="fill:none;fill-opacity:1;stroke:#539d85;stroke-width:0.343958;stroke-linecap:round;stroke-linejoin:round;stroke-dasharray:none;stroke-opacity:1"
         d="m 57.087783,134.25961 c 5.479113,-0.12571 3.016328,8.54623 -1.679052,5.10174"
         id="path79"
         sodipodi:nodetypes="cc" /><path
         style="fill:none;fill-opacity:1;stroke:#539d85;stroke-width:0.343958;stroke-linecap:round;stroke-linejoin:round;stroke-dasharray:none;stroke-opacity:1"
         d="m 41.299192,138.34418 c -4.098326,5.55337 -9.191763,-4.13444 -2.802841,-4.2748"
         id="path80"
         sodipodi:nodetypes="cc" /><path
         style="display:inline;vector-effect:non-scaling-stroke;fill:#539d85;fill-opacity:1;stroke:none;stroke-width:0.264583;stroke-linecap:round;stroke-linejoin:round;stroke-dasharray:none;stroke-opacity:1;-inkscape-stroke:hairline"
         d="m 79.504965,177.08987 c -1.212545,0.0361 -2.971755,-2.40145 -3.474061,-2.67544 -1.407083,0.31806 -1.461253,0.47948 -1.598248,1.36993 -0.139566,0.90717 -0.02112,2.65081 -5e-6,3.44765 0.02832,1.0686 0.753461,2.07772 1.18727,2.07772 1.141603,0 0.75346,-0.91329 1.849401,-0.82196 1.095941,0.0913 2.522482,1.00857 1.994226,1.59367 -1.412941,1.56497 -1.994227,2.12797 -3.113001,2.67594 -1.598247,-0.0457 -2.51153,0.0456 -3.607471,-0.6393 -1.095941,-0.68496 -2.279058,-1.82565 -2.214714,-4.10978 0.04567,-1.62108 0.821954,-2.30604 0.958947,-3.40198 0.136994,-1.09594 -0.502305,-5.93635 1.369928,-6.41582 1.58821,-0.40674 1.917895,-0.36532 2.785517,-0.0913 0.867619,0.27398 4.338098,2.94534 4.977397,4.01845 0,0 -0.24261,2.85286 -1.115186,2.97225 z"
         id="path81"
         sodipodi:nodetypes="ccssssscssssscc"
         inkscape:label="Лапа" /><circle
         style="vector-effect:non-scaling-stroke;fill:#000000;fill-opacity:1;stroke:none;stroke-width:0.275607;stroke-linecap:round;stroke-linejoin:round;stroke-dasharray:none;stroke-opacity:1;-inkscape-stroke:hairline"
         id="path84"
         cx="51.081944"
         cy="124.73421"
         r="1.6144735" /><circle
         style="vector-effect:non-scaling-stroke;fill:#000000;fill-opacity:1;stroke:none;stroke-width:0.275607;stroke-linecap:round;stroke-linejoin:round;stroke-dasharray:none;stroke-opacity:1;-inkscape-stroke:hairline"
         id="circle84"
         cx="60.284443"
         cy="126.60699"
         r="1.6144735" /><circle
         style="vector-effect:non-scaling-stroke;fill:#dc3f00;fill-opacity:1;stroke:none;stroke-width:0.468532;stroke-linecap:round;stroke-linejoin:round;stroke-dasharray:none;stroke-opacity:1;-inkscape-stroke:hairline"
         id="circle85"
         cx="46.141651"
         cy="124.76649"
         r="2.7446048" /><circle
         style="vector-effect:non-scaling-stroke;fill:#dc3f00;fill-opacity:1;stroke:none;stroke-width:0.468532;stroke-linecap:round;stroke-linejoin:round;stroke-dasharray:none;stroke-opacity:1;-inkscape-stroke:hairline"
         id="circle86"
         cx="65.741356"
         cy="127.44651"
         r="2.7446048" /><path
         style="fill:none;fill-opacity:1;stroke:#000000;stroke-width:0.291042;stroke-linecap:round;stroke-linejoin:round;stroke-dasharray:none;stroke-opacity:1"
         d="m 67.811346,115.54186 c -0.37673,-1.60967 0.859058,-4.03843 2.357415,-3.97849 0.01941,-0.54355 -0.222613,-0.10846 0.09704,-0.82767"
         id="path86"
         sodipodi:nodetypes="ccc" /><path
         style="fill:none;fill-opacity:1;stroke:#000000;stroke-width:0.291042;stroke-linecap:round;stroke-linejoin:round;stroke-dasharray:none;stroke-opacity:1"
         d="m 68.541974,114.99389 c -0.37673,-1.60967 -0.06564,-0.87619 0.713503,-0.90758 -0.402984,-0.74903 -0.46235,-1.11307 -0.142697,-1.83228"
         id="path87"
         sodipodi:nodetypes="ccc" /><path
         style="fill:none;fill-opacity:1;stroke:#000000;stroke-width:0.291042;stroke-linecap:round;stroke-linejoin:round;stroke-dasharray:none;stroke-opacity:1"
         d="m 51.166743,146.34237 c 4.180773,0.56496 6.699915,-0.41723 9.185196,-4.44673"
         id="path88"
         sodipodi:nodetypes="cc" /><path
         style="fill:none;fill-opacity:1;stroke:#000000;stroke-width:0.291042;stroke-linecap:round;stroke-linejoin:round;stroke-dasharray:none;stroke-opacity:1"
         d="m 61.55535,143.12304 c -0.568305,-0.66797 -1.09252,-1.6557 -2.283207,-1.64392"
         id="path89"
         sodipodi:nodetypes="cc" /><path
         style="fill:none;fill-opacity:1;stroke:#000000;stroke-width:0.291042;stroke-linecap:round;stroke-linejoin:round;stroke-dasharray:none;stroke-opacity:1"
         d="m 61.079596,181.39063 c 0.209168,0.64568 0.225876,3.00546 3.728275,2.8184"
         id="path90"
         sodipodi:nodetypes="cc" /><path
         style="fill:none;fill-opacity:1;stroke:#000000;stroke-width:0.291042;stroke-linecap:round;stroke-linejoin:round;stroke-dasharray:none;stroke-opacity:1"
         d="m 59.658859,181.55208 c -0.06529,0.37122 -0.323045,1.53629 0.43475,1.93044"
         id="path91"
         sodipodi:nodetypes="cc" /><path
         style="fill:none;fill-opacity:1;stroke:#000000;stroke-width:0.291042;stroke-linecap:round;stroke-linejoin:round;stroke-dasharray:none;stroke-opacity:1"
         d="m 72.929458,181.50479 c 0.209168,0.64568 0.225876,3.00546 3.728275,2.8184"
         id="path92"
         sodipodi:nodetypes="cc" /><path
         style="fill:none;fill-opacity:1;stroke:#000000;stroke-width:0.291042;stroke-linecap:round;stroke-linejoin:round;stroke-dasharray:none;stroke-opacity:1"
         d="m 71.508721,181.66624 c -0.06529,0.37122 -0.323045,1.53629 0.43475,1.93044"
         id="path93"
         sodipodi:nodetypes="cc" /></g></g><path
     style="display:inline;vector-effect:non-scaling-stroke;fill:#f1ccb6;fill-opacity:1;stroke:none;stroke-width:0.264583;stroke-linecap:butt;stroke-linejoin:miter;stroke-dasharray:none;stroke-opacity:1;-inkscape-stroke:hairline"
     d="m 89.44071,75.091453 c -1.81901,0.0992 -5.92004,2.08359 -6.84608,2.31511 -0.82684,0.85987 0.7276,1.9513 1.12447,2.24895 3.34037,-0.13229 6.06235,-0.78319 7.01145,-1.38906 0.58944,-0.63497 1.43086,-2.40645 -1.28984,-3.175 z"
     id="path115"
     sodipodi:nodetypes="ccccc"
     inkscape:label="Правая рука" /><g
     inkscape:groupmode="layer"
     id="layer10"
     inkscape:label="Мальчик"
     style="display:inline;vector-effect:non-scaling-stroke;stroke:#000000;stroke-width:0.264583;stroke-dasharray:none;-inkscape-stroke:hairline"
     transform="translate(-21.18819,-76.448647)"><path
       style="display:inline;vector-effect:non-scaling-stroke;fill:#f1b374;fill-opacity:1;stroke:none;stroke-width:0.264583;stroke-linecap:round;stroke-linejoin:round;stroke-dasharray:none;stroke-opacity:1;-inkscape-stroke:hairline"
       d="m 88.247121,163.54616 2.97063,-1.27543 1.243145,2.32484 -2.889906,1.24315 z"
       id="path94"
       inkscape:label="Нога"
       sodipodi:insensitive="true" /><path
       style="display:inline;vector-effect:non-scaling-stroke;fill:#dc3f00;fill-opacity:1;stroke:none;stroke-width:0.264583;stroke-linecap:round;stroke-linejoin:round;stroke-dasharray:none;stroke-opacity:1;-inkscape-stroke:hairline"
       d="m 90.940267,166.51453 c -2.297474,1.14766 -6.18097,2.737 -8.333719,3.49331 -3.043951,-3.86036 -3.998017,-6.01911 -3.344804,-7.00401 0.439659,-0.66291 2.1991,0.63776 4.51039,2.897 1.429242,-0.3902 3.116135,-1.99654 4.702267,-2.94811 0.655685,1.84049 1.449967,2.27256 2.465866,3.56181 z"
       id="path95"
       inkscape:label="Сапог"
       sodipodi:nodetypes="ccsccc" /><path
       style="display:inline;fill:none;fill-opacity:1;stroke:#000000;stroke-width:0.264583;stroke-linecap:round;stroke-linejoin:round;stroke-dasharray:none;stroke-opacity:1"
       d="m 83.856604,165.98369 c 0.155736,0.52512 0.102942,1.12448 -0.199779,1.67245"
       id="path96"
       sodipodi:nodetypes="cc"
       inkscape:label="Складка сапога" /><path
       style="display:inline;vector-effect:non-scaling-stroke;fill:#dc3f00;fill-opacity:1;stroke:none;stroke-width:0.264583;stroke-linecap:round;stroke-linejoin:round;stroke-dasharray:none;stroke-opacity:1;-inkscape-stroke:hairline"
       d="m 90.50254,162.18589 c 0,0 1.854464,-0.95193 2.675272,-1.48214 0.194072,-0.89044 0.160637,-1.79393 0.01223,-2.4789 4.062654,0.076 8.336328,-0.15278 11.882158,-2.58509 2.60943,4.13863 0.66165,7.96042 0.0697,8.6077 -2.50934,2.74366 -6.147503,1.5842 -9.06436,1.05697 -0.656591,0.36075 -3.580722,1.19003 -3.580722,1.19003 z"
       id="path97"
       sodipodi:nodetypes="ccccsccc"
       inkscape:label="Шорты" /><path
       style="display:inline;vector-effect:non-scaling-stroke;fill:#f1ccb6;fill-opacity:1;stroke:none;stroke-width:0.264583;stroke-linecap:butt;stroke-linejoin:miter;stroke-dasharray:none;stroke-opacity:1;-inkscape-stroke:hairline"
       d="m 89.511233,150.50091 c -2.45183,1.53778 -5.086414,3.79912 -6.024738,4.13677 -0.318706,0.11468 -0.90443,-0.77301 -1.578786,-1.54107 -0.794173,-0.90453 -1.687185,-1.7739 -2.390992,-1.94059 -0.60642,-0.14362 -0.853434,0.69084 -0.556617,1.14748 0.296818,0.45665 1.417845,1.43785 1.315616,1.92507 -0.0574,0.27356 -2.636791,-0.60835 -3.474229,-0.40295 -0.226475,0.0556 -0.49089,0.69067 0.313941,0.89046 0.44815,0.11124 1.889841,0.10493 1.855108,0.49663 -0.03361,0.37904 -1.738838,0.79624 -2.580027,0.77628 -0.420696,-0.01 -0.700992,0.85111 0.02855,0.93042 0.262569,0.0285 0.840124,-0.0101 1.175853,-0.0971 0.364274,-0.0944 1.362645,-0.72843 1.472336,-0.35489 0.143457,0.48854 -0.597404,0.96992 -0.91018,1.05012 -0.667838,0.17124 -1.178621,0.37217 -1.292783,0.60049 -0.11416,0.22832 -0.0742,0.73634 0.479475,0.67355 0.47696,-0.0541 2.031217,-0.97931 2.202456,-0.69392 0.105071,0.17512 -1.351327,1.12576 -1.506078,1.25901 -0.205491,0.17696 -0.348089,0.53094 0.313941,0.51943 0.656425,-0.0114 2.896328,-1.38565 3.476189,-1.9236 0.465785,-0.17809 6.286247,-2.38032 10.093161,-4.09396 0.124918,-1.32319 -1.589396,-3.05936 -2.412195,-3.35766 z"
       id="path11"
       sodipodi:nodetypes="csssssssssssssssssscccc"
       inkscape:label="рука левая" /><path
       style="display:inline;vector-effect:non-scaling-stroke;fill:#f1ccb6;fill-opacity:1;stroke:none;stroke-width:0.264583;stroke-linecap:butt;stroke-linejoin:miter;stroke-dasharray:none;stroke-opacity:1;-inkscape-stroke:hairline"
       d="m 82.979947,125.56133 c 0,0 -0.7028,-0.28112 -0.835092,-0.81029 -0.132291,-0.52916 -0.07441,-1.43868 -0.305924,-2.2655 -0.23151,-0.82682 -1.365896,-2.56714 -2.091862,-2.95175 -1.277844,-0.67699 -1.670346,-1.23713 -1.876887,-1.03353 -0.2571,0.25343 -0.314194,1.05834 -0.198438,1.28985 0.115755,0.23151 0.802018,1.00045 0.8847,1.34771 0.08268,0.34727 -0.205027,3.26878 -0.06615,4.63848 0.08534,0.84165 2.025715,2.11667 2.811197,2.87734 0.735454,0.71222 1.678451,-3.09231 1.678451,-3.09231 z"
       id="path109"
       sodipodi:nodetypes="cssssssssc"
       inkscape:label="Рука правая" /><path
       style="display:inline;vector-effect:non-scaling-stroke;fill:#f1ccb6;fill-opacity:1;stroke:none;stroke-width:0.264583;stroke-linecap:butt;stroke-linejoin:miter;stroke-dasharray:none;stroke-opacity:1;-inkscape-stroke:hairline"
       d="m 75.537048,120.83589 c -0.481596,0.06 -0.661214,0.89836 -0.210473,1.09915 -0.450499,0.052 -0.644435,0.54899 -0.397563,0.93544 -0.512376,0.0295 -0.575842,0.87914 -0.257249,1.1693 0.377161,0.59206 0.975548,0.99833 1.462463,1.32758 0.546124,0.16605 1.134124,0.34155 1.011275,-0.53128 0.389782,-0.2114 0.554902,-0.70514 0.298587,-1.06704 0.446485,-0.0808 0.599799,-0.78237 0.279458,-1.07459 0.610251,-0.2808 0.347403,-0.95283 0.222269,-1.29729 -0.07985,-0.21981 -1.12395,-1.07057 -1.12395,-1.07057 0,0 -0.372377,-0.37196 -0.653391,-0.3326 -0.802154,-0.0754 -0.80375,0.55415 -0.631426,0.8419 z"
       id="path110"
       sodipodi:nodetypes="ccccccccsccc"
       inkscape:label="Рука правая" /><g
       inkscape:groupmode="layer"
       id="layer9"
       inkscape:label="Голова"
       style="display:inline"><path
         style="display:inline;vector-effect:non-scaling-stroke;fill:#f1ccb6;fill-opacity:1;stroke:none;stroke-width:0.264583;stroke-linecap:butt;stroke-linejoin:miter;stroke-dasharray:none;stroke-opacity:1;-inkscape-stroke:hairline"
         d="m 98.45203,127.54013 1.9179,2.87684 c -0.1552,6.5314 0.16553,8.99967 0.59363,11.18773 1.05967,-2.07491 2.38055,-3.99003 3.65314,-5.93634 0,0 2.23816,0.16931 2.55719,1.05027 0.67933,1.87587 -0.052,3.85741 -1.18727,4.4751 -1.55258,0.84478 -1.82656,-0.0457 -2.16905,0.0913 -1.01408,1.33825 -2.97223,3.33355 -5.57103,4.33811 -1.26135,0.48757 -4.51644,1.56704 -6.803966,0.89045 -1.621079,-0.47948 -2.54261,-0.42237 -4.358399,-0.98178 -2.355274,-0.72561 -4.068395,-3.38922 -4.20364,-4.29244 -0.322895,-2.15642 0.07265,-5.86022 0.159762,-6.75314 0.09133,-0.93612 0.02309,-0.55614 0.182723,-1.78607 0.193331,-1.48957 2.762685,-7.21494 2.762685,-7.21494 l 4.3381,0.15982 z"
         id="path12"
         inkscape:label="Лицо"
         sodipodi:nodetypes="ccccsscssssssccc"
         sodipodi:insensitive="true" /><circle
         style="vector-effect:non-scaling-stroke;fill:#dc3f00;fill-opacity:1;stroke:none;stroke-width:0.279282;stroke-linecap:round;stroke-linejoin:round;stroke-dasharray:none;stroke-opacity:0.227872;-inkscape-stroke:hairline;paint-order:markers fill stroke"
         id="path13"
         cx="84.525764"
         cy="138.78822"
         r="1.3803748"
         inkscape:label="Щека правая" /><circle
         style="display:inline;vector-effect:non-scaling-stroke;fill:#dc3f00;fill-opacity:1;stroke:none;stroke-width:0.305414;stroke-linecap:round;stroke-linejoin:round;stroke-dasharray:none;stroke-opacity:0.227872;-inkscape-stroke:hairline;paint-order:markers fill stroke"
         id="circle13"
         cx="95.82708"
         cy="140.14438"
         r="1.5095327"
         inkscape:label="Щека левая" /><circle
         style="vector-effect:non-scaling-stroke;fill:#000000;fill-opacity:1;stroke:none;stroke-width:0.173123;stroke-linecap:round;stroke-linejoin:round;stroke-dasharray:none;stroke-opacity:0.227872;-inkscape-stroke:hairline;paint-order:markers fill stroke"
         id="circle15"
         cx="93.607178"
         cy="138.1505"
         r="0.85567093"
         inkscape:label="Щека левая" /><circle
         style="vector-effect:non-scaling-stroke;fill:#000000;fill-opacity:1;stroke:none;stroke-width:0.173123;stroke-linecap:round;stroke-linejoin:round;stroke-dasharray:none;stroke-opacity:0.227872;-inkscape-stroke:hairline;paint-order:markers fill stroke"
         id="circle16"
         cx="86.923256"
         cy="137.45627"
         r="0.85567093"
         inkscape:label="Щека левая" /><path
         style="display:inline;fill:none;stroke:#000000;stroke-width:0.365;stroke-linecap:round;stroke-linejoin:miter;stroke-dasharray:none;stroke-opacity:1"
         d="m 90.313649,139.13533 c -1.372304,-1.96967 -3.471119,1.61447 -0.306751,1.42073"
         id="path16"
         sodipodi:nodetypes="cc"
         inkscape:label="Нос"
         sodipodi:insensitive="true" /><path
         style="display:inline;fill:none;stroke:#000000;stroke-width:0.365;stroke-linecap:round;stroke-linejoin:miter;stroke-dasharray:none;stroke-opacity:1"
         d="m 89.506413,142.17054 c 1.307722,0.54891 2.567012,-0.22603 3.406538,-1.32387"
         id="path17"
         sodipodi:nodetypes="cc"
         inkscape:label="Рот"
         sodipodi:insensitive="true" /><path
         style="display:inline;fill:none;stroke:#000000;stroke-width:0.465;stroke-linecap:round;stroke-linejoin:miter;stroke-dasharray:none;stroke-opacity:1"
         d="m 96.754221,130.31595 c 0.976657,0.0352 1.471071,0.16212 1.774043,1.0735"
         id="path18"
         sodipodi:nodetypes="cc"
         inkscape:label="Бровь левая"
         sodipodi:insensitive="true" /><path
         style="display:inline;fill:none;stroke:#000000;stroke-width:0.465;stroke-linecap:round;stroke-linejoin:miter;stroke-dasharray:none;stroke-opacity:1"
         d="m 85.453715,130.23522 c 0.687557,-1.01542 1.33188,-0.95976 1.761815,-1.03016"
         id="path19"
         sodipodi:nodetypes="cc"
         inkscape:label="Бровь правая"
         sodipodi:insensitive="true" /><path
         style="display:inline;fill:none;stroke:#000000;stroke-width:0.264583px;stroke-linecap:round;stroke-linejoin:round;stroke-opacity:1"
         d="m 104.13354,140.10401 c 0,-1.25929 1.53375,-1.64676 1.63062,-0.43591 1.61082,-2.34557 -1.78997,-2.31538 -2.00539,-1.30036"
         id="path20"
         sodipodi:nodetypes="ccc"
         inkscape:label="Ухо"
         sodipodi:insensitive="true" /><path
         style="display:inline;vector-effect:non-scaling-stroke;fill:#ecc055;fill-opacity:1;stroke:none;stroke-width:0.264583;stroke-linecap:butt;stroke-linejoin:miter;stroke-dasharray:none;stroke-opacity:1;-inkscape-stroke:hairline"
         d="m 81.105609,128.40624 c 0.219879,-3.53701 1.998504,-3.71262 2.476832,-4.16386 -0.674693,-0.21151 -1.6084,-0.68214 -1.873936,-1.73613 1.013062,0.0648 1.604064,0.48562 2.798774,0.1143 1.194711,-0.37133 4.96028,-2.30146 6.511195,-2.64005 1.74201,-0.3803 4.274579,-0.66965 6.075962,-0.18655 1.356159,0.12916 5.451714,2.12388 6.057384,2.79939 0.0349,-0.89992 -0.1004,-1.38285 -0.23745,-2.25404 3.61883,1.51475 2.82323,3.0779 2.41388,4.00747 0.64092,0.13044 2.75434,0.86628 3.96053,1.67027 -0.79161,0.60991 -1.61705,0.94098 -2.2221,0.88485 1.40418,2.21567 0.90701,8.62487 0.11477,9.45886 -0.69261,0.72911 -1.8072,-0.19732 -2.45299,0.44847 -0.64578,0.64579 -1.24071,2.35842 -1.5636,3.3271 -0.3229,0.96868 -1.69304,3.10142 -3.877707,3.20645 1.228737,-1.7672 -0.513329,-4.30301 -1.003882,-5.54926 -0.40832,-1.03733 1.498508,-2.93517 1.483023,-3.99018 -0.02501,-1.70392 -1.679726,-3.42358 -1.842462,-5.07627 -2.902585,0.79034 -2.454278,5.33291 -4.57173,7.15684 -1.873009,-1.5396 -0.975232,-3.33169 -0.939638,-3.72308 -0.774948,-0.32289 -0.946802,1.49114 -3.062633,1.73938 1.411732,-2.41169 -1.09857,-3.90266 0.222446,-7.11868 -1.635741,-0.16794 -5.573023,2.35855 -6.534028,7.73596 -1.300203,-3.00304 -2.030994,-4.5291 -1.93264,-6.11124 z"
         id="path21"
         sodipodi:nodetypes="sccssccccccssscssccccccs"
         inkscape:label="Волосы"
         sodipodi:insensitive="true" /><path
         style="display:inline;fill:none;stroke:#000000;stroke-width:0.365;stroke-linecap:round;stroke-linejoin:miter;stroke-dasharray:none;stroke-opacity:1"
         d="m 83.157129,130.90792 c 0.210971,-1.79037 2.019656,-3.96268 4.005934,-4.71116"
         id="path85"
         sodipodi:nodetypes="cc"
         inkscape:label="Волосы-линия"
         sodipodi:insensitive="true" /><path
         style="display:inline;fill:none;stroke:#000000;stroke-width:0.365;stroke-linecap:round;stroke-linejoin:miter;stroke-dasharray:none;stroke-opacity:1"
         d="m 82.430616,127.38837 c 1.002063,-1.95182 3.553406,-2.94556 6.217763,-2.7415"
         id="path98"
         sodipodi:nodetypes="cc"
         inkscape:label="Волосы-линия"
         sodipodi:insensitive="true" /><path
         style="display:inline;fill:none;stroke:#000000;stroke-width:0.365;stroke-linecap:round;stroke-linejoin:miter;stroke-dasharray:none;stroke-opacity:1"
         d="m 90.438405,130.39129 c -0.321806,-1.85495 -0.35362,-3.38147 1.761816,-5.21164"
         id="path99"
         sodipodi:nodetypes="cc"
         inkscape:label="Волосы-линия"
         sodipodi:insensitive="true" /><path
         style="display:inline;fill:none;stroke:#000000;stroke-width:0.365;stroke-linecap:round;stroke-linejoin:miter;stroke-dasharray:none;stroke-opacity:1"
         d="m 91.294076,131.98962 c 1.244233,-1.43519 -0.796215,-4.28997 3.279421,-6.76154"
         id="path100"
         sodipodi:nodetypes="cc"
         inkscape:label="Волосы-линия"
         sodipodi:insensitive="true" /><path
         style="display:inline;fill:none;stroke:#000000;stroke-width:0.365;stroke-linecap:round;stroke-linejoin:miter;stroke-dasharray:none;stroke-opacity:1"
         d="m 93.006484,133.42804 c 0.422277,-2.3713 0.733536,-5.63706 5.745288,-6.46472"
         id="path101"
         sodipodi:nodetypes="cc"
         inkscape:label="Волосы-линия"
         sodipodi:insensitive="true" /><path
         style="display:inline;fill:none;stroke:#000000;stroke-width:0.365;stroke-linecap:round;stroke-linejoin:miter;stroke-dasharray:none;stroke-opacity:1"
         d="m 84.832591,123.6559 c 4.943033,0.1174 8.199634,-3.0342 12.937401,-1.85264"
         id="path102"
         sodipodi:nodetypes="cc"
         inkscape:label="Волосы-линия"
         sodipodi:insensitive="true" /><path
         style="display:inline;fill:none;stroke:#000000;stroke-width:0.365;stroke-linecap:round;stroke-linejoin:miter;stroke-dasharray:none;stroke-opacity:1"
         d="m 99.559298,125.75645 c 1.358392,2.85726 0.916192,3.49579 0.836382,6.00161"
         id="path103"
         sodipodi:nodetypes="cc"
         inkscape:label="Волосы-линия"
         sodipodi:insensitive="true" /><path
         style="display:inline;fill:none;stroke:#000000;stroke-width:0.365;stroke-linecap:round;stroke-linejoin:miter;stroke-dasharray:none;stroke-opacity:1"
         d="m 100.38125,124.08971 c 2.47717,2.17229 1.53266,6.73795 2.38897,8.65013"
         id="path104"
         sodipodi:nodetypes="cc"
         inkscape:label="Волосы-линия"
         sodipodi:insensitive="true" /><path
         style="display:inline;fill:none;stroke:#000000;stroke-width:0.365;stroke-linecap:round;stroke-linejoin:miter;stroke-dasharray:none;stroke-opacity:1"
         d="m 104.60519,127.83417 c 2.13469,2.17229 1.82948,5.18537 1.08754,6.98339"
         id="path105"
         sodipodi:nodetypes="cc"
         inkscape:label="Волосы-линия"
         sodipodi:insensitive="true" /><path
         style="display:inline;fill:none;stroke:#000000;stroke-width:0.365;stroke-linecap:round;stroke-linejoin:miter;stroke-dasharray:none;stroke-opacity:1"
         d="m 100.90639,134.20433 c 0.11776,1.19094 -1.134431,2.22109 -1.109959,3.33682 0.02532,1.15467 1.319069,2.38966 0.941729,3.30409"
         id="path106"
         sodipodi:nodetypes="csc"
         inkscape:label="Волосы-линия"
         sodipodi:insensitive="true" /><path
         style="display:inline;fill:none;stroke:#000000;stroke-width:0.365;stroke-linecap:round;stroke-linejoin:miter;stroke-dasharray:none;stroke-opacity:1"
         d="m 101.79684,136.73869 c 0.7876,0.36855 0.25407,1.34958 0.33408,3.39875"
         id="path107"
         sodipodi:nodetypes="cc"
         inkscape:label="Волосы-линия"
         sodipodi:insensitive="true" /><path
         style="display:inline;fill:none;stroke:#000000;stroke-width:0.264583px;stroke-linecap:round;stroke-linejoin:round;stroke-opacity:1"
         d="m 106.0971,138.16328 c -0.0228,-0.39167 0.013,-0.60962 0.44335,-0.29892 -0.62269,-0.49062 -0.6983,-0.34386 -1.82791,-0.13198"
         id="path108"
         sodipodi:nodetypes="ccc"
         inkscape:label="Ухо"
         sodipodi:insensitive="true" /></g><path
       style="display:inline;vector-effect:non-scaling-stroke;fill:#c8aaff;fill-opacity:1;stroke:none;stroke-width:0.264583;stroke-linecap:butt;stroke-linejoin:miter;stroke-dasharray:none;stroke-opacity:1;-inkscape-stroke:hairline"
       d="m 93.219559,158.18798 -0.544051,-3.70597 c 0,0 -0.341532,-0.12457 -0.753459,-0.0457 0.395306,-1.40642 -2.562261,-4.07912 -2.785518,-4.26961 1.036037,-0.86857 2.102021,-1.22801 2.613465,-1.6356 -0.170542,-0.8366 -0.182854,-1.26103 -0.382607,-2.0482 2.464131,0.11693 5.260088,-0.38328 6.810656,-0.85979 1.534419,0.73436 6.236135,8.45429 6.875225,9.99148 -3.0052,2.29336 -7.614155,2.72259 -11.833711,2.57339 z"
       id="path7"
       sodipodi:nodetypes="ccccccccc"
       inkscape:label="Рубашка" /><path
       style="display:inline;opacity:1;fill:none;fill-opacity:1;stroke:#000000;stroke-width:0.429;stroke-linecap:round;stroke-linejoin:round;stroke-dasharray:none;stroke-opacity:1"
       d="m 105.033,155.7097 c -2.62978,1.81514 -6.136515,2.66683 -11.713452,2.507"
       id="path8"
       sodipodi:nodetypes="cc"
       inkscape:label="Складка рубашки" /><path
       style="display:inline;opacity:1;fill:none;fill-opacity:1;stroke:#000000;stroke-width:0.329;stroke-linecap:round;stroke-linejoin:round;stroke-dasharray:none;stroke-opacity:1"
       d="m 99.957982,149.64895 c -2.447123,1.97497 -2.418048,2.77671 -7.195861,4.74026"
       id="path9"
       sodipodi:nodetypes="cc"
       inkscape:label="Складка рубашки" /><path
       style="display:inline;opacity:1;fill:none;fill-opacity:1;stroke:#000000;stroke-width:0.329;stroke-linecap:round;stroke-linejoin:round;stroke-dasharray:none;stroke-opacity:1"
       d="m 96.122188,146.58945 c -0.780379,0.19406 -2.704736,0.75411 -4.286055,1.78154"
       id="path10"
       sodipodi:nodetypes="cc"
       inkscape:label="Складка рубашки" /></g><g
     inkscape:groupmode="layer"
     id="layer11"
     inkscape:label="Девочка"
     style="display:inline;vector-effect:non-scaling-stroke;stroke:#000000;stroke-width:0.264583;stroke-dasharray:none;-inkscape-stroke:hairline"
     transform="translate(-21.18819,-76.448647)"><path
       style="display:inline;fill:#f1ccb6;fill-opacity:1;stroke:none;stroke-width:0.264583px;stroke-linecap:butt;stroke-linejoin:miter;stroke-opacity:1"
       d="m 103.62374,171.02243 2.40876,-1.61364 2.97003,1.87088 -4.16272,1.6838 z"
       id="path113"
       inkscape:label="Нога" /><path
       style="display:inline;vector-effect:non-scaling-stroke;fill:#ecc055;fill-opacity:1;stroke:none;stroke-width:0.264583;stroke-linecap:round;stroke-linejoin:round;stroke-dasharray:none;stroke-opacity:1;-inkscape-stroke:hairline"
       d="m 106.09445,173.9513 c -2.29747,1.14766 -6.180971,2.737 -8.33372,3.49331 -3.043951,-3.86036 -3.998017,-6.01911 -3.344804,-7.00401 0.439659,-0.66291 2.1991,0.63776 4.51039,2.897 1.429244,-0.3902 3.116134,-1.99654 4.702264,-2.94811 0.65569,1.84049 1.44997,2.27256 2.46587,3.56181 z"
       id="path111"
       inkscape:label="Сапог"
       sodipodi:nodetypes="ccsccc" /><path
       style="display:inline;fill:none;fill-opacity:1;stroke:#000000;stroke-width:0.265;stroke-linecap:round;stroke-linejoin:round;stroke-dasharray:none;stroke-opacity:1"
       d="m 99.217492,173.33778 c -0.0071,0.61561 0.13944,1.61132 -0.57185,1.56496"
       id="path112"
       sodipodi:nodetypes="cc"
       inkscape:label="Складка сапога" /><path
       style="display:inline;vector-effect:non-scaling-stroke;fill:#c8aaff;fill-opacity:1;stroke:none;stroke-width:0.264583;stroke-linecap:butt;stroke-linejoin:miter;stroke-dasharray:none;stroke-opacity:1;-inkscape-stroke:hairline"
       d="m 98.584001,168.56296 c 6.958109,-3.04769 12.782709,-10.00632 13.901189,-10.27177 2.67032,1.71585 7.75589,3.19704 8.98195,-0.0697 1.44304,2.18173 3.05495,5.78961 3.07976,8.04117 0.0469,4.2516 -1.13067,5.13987 0.0211,8.29616 -2.30249,0.66146 -7.12669,1.29114 -9.14348,1.12448 -3.38755,-0.27994 -6.95334,-3.9026 -8.4747,-5.02708 -1.52135,-1.12448 -4.37238,-1.94119 -8.365779,-2.09329 z"
       id="path114"
       sodipodi:nodetypes="cccscsscc"
       inkscape:label="Юбка" /><path
       style="display:inline;vector-effect:non-scaling-stroke;fill:#f1ccb6;fill-opacity:1;stroke:none;stroke-width:0.264583;stroke-linecap:butt;stroke-linejoin:miter;stroke-dasharray:none;stroke-opacity:1;-inkscape-stroke:hairline"
       d="m 111.52188,155.22774 c -2.49431,0.6986 -5.39089,4.28294 -6.15157,4.15064 -0.76068,-0.13229 -3.19153,-3.09231 -3.58841,-3.29075 -0.46302,-0.49609 -1.48828,-0.0496 -1.19062,0.64492 0.16536,0.42995 1.4552,1.47174 1.45521,2.0836 -0.47956,0.16536 -2.629304,-0.56224 -3.15847,-0.59531 -0.529167,-0.0331 -0.859896,0.79374 -0.297656,0.92604 0.562239,0.13229 2.811176,0.2315 2.778126,0.64491 -0.0827,0.47956 -2.48047,0.72761 -3.175002,0.72761 -0.694531,0 -0.810286,1.10794 0.04961,1.02526 0.777213,-0.0166 2.926952,-0.97565 3.059242,-0.67799 0.13229,0.29765 -1.918227,1.25677 -2.41432,1.58749 -0.859896,0.678 0.01653,1.12448 0.429947,0.8599 0.396875,-0.0992 2.100133,-1.14101 2.348173,-0.97565 0.0331,0.31419 -1.32291,1.27331 -1.55442,1.47174 -0.628388,0.33073 -0.496092,1.2237 0.72761,0.66147 0.46302,-0.29766 3.57187,-2.4474 4.56406,-2.71198 0.99219,-0.26459 8.23515,-3.77032 8.49973,-3.90261 0.26459,-0.13229 -1.27938,-2.35695 -2.38124,-2.62929 z"
       id="path116"
       sodipodi:nodetypes="ccccccccccccccccccc"
       inkscape:label="Левая рука" /><path
       style="display:inline;vector-effect:non-scaling-stroke;fill:#ecc055;fill-opacity:1;stroke:none;stroke-width:0.264583;stroke-linecap:butt;stroke-linejoin:miter;stroke-dasharray:none;stroke-opacity:1;-inkscape-stroke:hairline"
       d="m 121.71601,158.61604 c -0.79596,3.44719 -7.37866,2.86253 -8.55786,0.30334 0.0495,-1.38835 -0.10877,-2.19054 -2.16544,-3.50975 -0.12026,-0.15235 -0.26055,-0.21453 -0.35813,-0.37549 1.66804,-1.27185 0.95814,-2.50718 -0.0411,-3.34638 -0.29765,-0.42995 1.4491,-0.32347 1.92058,-0.74297 0.56422,-0.50202 0.58378,-1.54246 1.25677,-1.88516 1.92709,-0.98132 4.53384,-0.67361 6.48229,0.26459 0.78864,0.37974 1.37099,1.18157 1.7198,1.98437 0.29158,0.67108 0.31436,1.45583 0.23151,2.18281 -0.0726,0.63737 -0.61345,0.32625 -0.72193,0.90695 -0.18154,1.06604 0.23353,4.21769 0.23353,4.21769 z"
       id="path117"
       sodipodi:nodetypes="cccccccccccc"
       inkscape:label="Блузка" /><path
       style="display:inline;opacity:1;fill:none;fill-opacity:1;stroke:#000000;stroke-width:0.429;stroke-linecap:round;stroke-linejoin:round;stroke-dasharray:none;stroke-opacity:1"
       d="m 121.02543,154.27916 c -2.44713,1.97497 -2.48419,2.51213 -7.262,4.47568"
       id="path118"
       sodipodi:nodetypes="cc"
       inkscape:label="Складка блузки" /><path
       style="display:inline;opacity:1;fill:none;fill-opacity:1;stroke:#000000;stroke-width:0.429;stroke-linecap:round;stroke-linejoin:round;stroke-dasharray:none;stroke-opacity:1"
       d="m 117.45356,151.03801 c -1.90143,1.09854 -2.34011,0.83702 -3.7369,1.82354"
       id="path119"
       sodipodi:nodetypes="cc"
       inkscape:label="Складка блузки" /><path
       style="display:inline;vector-effect:non-scaling-stroke;fill:#f1ccb6;fill-opacity:1;stroke:none;stroke-width:0.264583;stroke-linecap:butt;stroke-linejoin:miter;stroke-dasharray:none;stroke-opacity:1;-inkscape-stroke:hairline"
       d="m 116.13814,150.37971 c -5.36151,-0.54816 -8.33821,-3.72294 -8.32182,-5.33795 -0.0661,-1.5875 1.6881,-9.14515 2.08497,-10.46807 0.39688,-1.32291 3.57189,-2.51353 3.57189,-2.51353 l 20.20754,9.49192 c 0,0 1.88516,3.40651 0.33074,4.66328 -1.55443,1.25678 -4.63315,4.34249 -13.36973,4.38216 -1.65661,0.008 -1.4981,0.0605 -4.50359,-0.21781 z"
       id="path14"
       sodipodi:nodetypes="ccsccssc"
       inkscape:label="Лицо" /><path
       style="display:inline;vector-effect:non-scaling-stroke;fill:#dc3f00;fill-opacity:1;stroke:none;stroke-width:0.264583;stroke-linecap:butt;stroke-linejoin:miter;stroke-dasharray:none;stroke-opacity:1;-inkscape-stroke:hairline"
       d="m 113.22717,151.59461 c -0.71396,0.18372 -1.93982,0.22211 -2.92204,-0.29239 -6.48575,-4.09038 -2.4959,-14.93505 -0.97064,-16.62632 -0.18709,-2.11649 0.70603,-3.72606 0.81396,-3.9477 -0.17408,-0.42191 -0.0442,-0.097 -1.35639,-0.18709 0.72513,-0.84974 2.2752,-1.39438 2.50906,-2.00241 1.31398,-2.24925 3.47304,-6.17217 13.02149,-4.59466 4.21941,0.97069 5.05136,2.49877 6.83478,4.20582 -0.20167,-1.02564 0.0428,-0.60196 -0.10401,-1.49523 2.32711,2.05559 2.8178,2.16686 2.8553,4.63484 2.83147,5.24542 4.06355,4.81264 3.32082,13.6107 -1.53925,4.15884 -3.91523,9.7302 -3.30615,13.05463 0.65047,3.55035 4.22713,4.92585 6.21827,2.43261 0.18586,0.73575 1.41283,7.6913 -8.28147,9.69408 -2.39754,0.14121 -6.27692,-2.07587 -7.16559,-3.85321 -0.26713,-2.22624 -1.70608,-5.04229 -2.40767,-6.39868 -0.28499,-4.00382 -1.15046,-5.13985 -1.22423,-6.09139 0.84452,-1.54769 0.35066,-1.9925 -0.2949,-3.03021 5.63935,-0.51988 6.80334,-2.40409 8.37659,-4.01463 0.28283,0.22365 0.61009,0.42453 0.92901,0.45186 3.84247,-0.19776 3.99198,-4.73757 2.62146,-4.9699 -4.54543,-0.81514 -3.13198,2.16089 -5.89329,3.00326 0.36846,-0.586 0.51593,-0.62184 0.79481,-1.15885 -0.47802,-0.14635 -1.51494,1.09812 -2.41202,0.91499 -0.19267,-1.48941 -0.0262,-3.08858 -1.79941,-4.85209 0.31252,0.84083 0.13286,0.94593 0.0226,1.58378 -2.08728,-0.05 -3.34377,-0.92903 -4.33179,-1.79529 -0.32391,0.24481 -0.31345,0.25828 -0.44537,0.5776 -2.90042,-0.68898 -5.23923,-4.8959 -5.25465,-6.72711 -1.14542,1.12144 -0.26317,2.12212 -0.35194,3.55249 -1.12852,0.52199 -1.98837,-1.75707 -1.73778,-3.34311 -3.22559,6.56005 -3.36391,11.83509 -1.83919,13.07392 1.42169,1.41087 2.81511,2.30769 3.92886,2.66601 0.23356,0.85842 0.22022,1.25512 -0.14845,1.92368 z"
       id="path15"
       sodipodi:nodetypes="cccccccccccscccccccccccccccccccccc"
       inkscape:label="Волосы" /><path
       style="fill:none;stroke:#000000;stroke-width:0.365;stroke-linecap:round;stroke-linejoin:miter;stroke-dasharray:none;stroke-opacity:1"
       d="m 123.31592,135.10797 c 0.98466,0.0519 1.65156,0.80977 1.63154,1.31214"
       id="path120"
       sodipodi:nodetypes="cc" /><path
       style="fill:none;stroke:#000000;stroke-width:0.365;stroke-linecap:round;stroke-linejoin:miter;stroke-dasharray:none;stroke-opacity:1"
       d="m 112.22136,133.82887 c 0.51376,-0.57343 0.73625,-0.67038 1.67174,-0.67247"
       id="path121"
       sodipodi:nodetypes="cc" /><path
       style="fill:none;stroke:#000000;stroke-width:0.365;stroke-linecap:round;stroke-linejoin:miter;stroke-dasharray:none;stroke-opacity:1"
       d="m 128.81202,144.71383 c 0.7527,-1.47413 2.55497,-1.86384 3.32849,-1.19056"
       id="path122"
       sodipodi:nodetypes="cc" /><path
       style="fill:none;stroke:#000000;stroke-width:0.365;stroke-linecap:round;stroke-linejoin:miter;stroke-dasharray:none;stroke-opacity:1"
       d="m 131.40646,143.23811 c 0.7786,1.19948 0.60871,1.77274 -0.12053,2.22627"
       id="path123"
       sodipodi:nodetypes="cc" /><path
       style="fill:none;stroke:#000000;stroke-width:0.365;stroke-linecap:round;stroke-linejoin:miter;stroke-dasharray:none;stroke-opacity:1"
       d="m 129.64219,145.4097 c 0.4856,-1.19334 1.51402,-0.84772 2.24977,-0.58952"
       id="path124"
       sodipodi:nodetypes="cc" /><path
       style="fill:none;stroke:#000000;stroke-width:0.365;stroke-linecap:round;stroke-linejoin:miter;stroke-dasharray:none;stroke-opacity:1"
       d="m 119.14825,145.34445 c -1.00381,1.24831 -2.83246,1.4962 -3.36637,0.94865"
       id="path125"
       sodipodi:nodetypes="cc" /><path
       style="fill:none;stroke:#000000;stroke-width:0.365;stroke-linecap:round;stroke-linejoin:miter;stroke-dasharray:none;stroke-opacity:1"
       d="m 116.16943,144.80729 c -2.89609,-0.43643 -0.65939,-3.21619 0.63794,-1.4808"
       id="path126"
       sodipodi:nodetypes="cc" /><circle
       style="fill:#000000;fill-opacity:1;stroke:none;stroke-width:0.365001;stroke-linecap:round;stroke-linejoin:round;stroke-dasharray:none;stroke-opacity:0.227872;paint-order:markers fill stroke"
       id="path127"
       cx="113.56977"
       cy="141.41835"
       r="0.84598941" /><circle
       style="fill:#000000;fill-opacity:1;stroke:none;stroke-width:0.365001;stroke-linecap:round;stroke-linejoin:round;stroke-dasharray:none;stroke-opacity:0.227872;paint-order:markers fill stroke"
       id="circle127"
       cx="120.21683"
       cy="142.74776"
       r="0.84598941" /><circle
       style="fill:#dc3f00;fill-opacity:1;stroke:none;stroke-width:0.62944;stroke-linecap:round;stroke-linejoin:round;stroke-dasharray:none;stroke-opacity:0.227872;paint-order:markers fill stroke"
       id="circle128"
       cx="122.24547"
       cy="144.79367"
       r="1.4589001" /><circle
       style="fill:#dc3f00;fill-opacity:1;stroke:none;stroke-width:0.569848;stroke-linecap:round;stroke-linejoin:round;stroke-dasharray:none;stroke-opacity:0.227872;paint-order:markers fill stroke"
       id="circle129"
       cx="111.09222"
       cy="142.44562"
       r="1.3207793" /></g></svg>
