<?xml version="1.0" encoding="UTF-8" standalone="no"?>
<svg
   shape-rendering="geometricPrecision"
   text-rendering="geometricPrecision"
   image-rendering="optimizeQuality"
   fill-rule="evenodd"
   clip-rule="evenodd"
   viewBox="0 0 40 40"
   xmlns="http://www.w3.org/2000/svg"
   xmlns:svg="http://www.w3.org/2000/svg">
  <g
     transform="matrix(0.07738888,0,0,0.07738888,0.21846882,1.8210336)">
    <path
       fill-rule="nonzero"
       d="m 378.363,24.038 h 83.575 c 5.827,0 10.551,4.724 10.551,10.551 v 25.224 c 0,5.824 -4.718,10.545 -10.539,10.551 v 81.843 l 36.413,27.344 a 12.04,12.04 0 0 1 2.184,1.85 c 30.562,32.901 -5.696,80.856 -42.52,71.541 v 207.555 c 0,7.325 -5.939,13.264 -13.264,13.264 H 64.878 c -7.325,0 -13.265,-5.939 -13.265,-13.264 V 252.146 C 15.149,259.617 -15.966,215.341 9.005,183.37 a 12.085,12.085 0 0 1 2.537,-2.597 L 248.015,2.406 c 4.177,-3.127 10.078,-3.288 14.459,0 L 378.348,89.423 V 70.364 c -5.822,-0.009 -10.537,-4.73 -10.537,-10.551 V 34.589 c 0,-5.827 4.725,-10.551 10.552,-10.551 z" />
    <path
       fill="#fed2a4"
       d="m 378.363,34.589 h 83.574 V 59.814 H 378.363 Z M 255.957,100.953 444.763,246.939 V 460.497 H 328.178 v -128.58 c 0,-20.177 -8.252,-38.528 -21.541,-51.816 -28.544,-28.545 -75.086,-28.545 -103.63,0 -13.289,13.288 -21.541,31.633 -21.541,51.816 v 128.58 H 64.878 V 247.066 Z" />
    <path
       fill="#bb5d4c"
       d="m 18.794,190.379 c -20.167,25.078 9.009,61.919 38.549,47.153 L 256.832,85.765 450.061,235.967 c 28.924,21.505 66.555,-19.596 41.678,-46.372 L 255.267,12.012 Z m 240.569,78.395 c 32.721,2.349 58.765,29.857 58.765,63.143 V 354.5 h -58.765 z m 58.765,94.804 v 97.317 h -58.765 v -97.317 z m -67.844,97.317 h -58.768 v -97.317 h 58.768 z M 191.516,354.5 v -22.583 c 0,-33.293 26.047,-60.794 58.768,-63.143 V 354.5 Z M 451.398,70.364 v 73.92 L 388.899,97.346 V 70.364 Z" />
    <path
       d="m 254.82,163.455 c 14.177,0 25.67,11.49 25.67,25.67 0,14.176 -11.493,25.669 -25.67,25.669 -14.179,0 -25.669,-11.493 -25.669,-25.669 0,-14.18 11.49,-25.67 25.669,-25.67 z" />
    <path
       fill="#f2af7c"
       d="M 257.23,100.546 274.459,114.88 90.132,255.989 86.792,460.497 H 63.784 l 1.094,-213.434 z" />
    <path
       fill="#99473a"
       d="m 18.794,190.379 c -15.914,23.528 0.939,31.801 30.48,17.035 L 255.984,52.175 V 12.55 l -0.717,-0.538 z" />
  </g>
</svg>
