<?xml version="1.0" encoding="UTF-8" standalone="no"?>
<!-- Created with Inkscape (http://www.inkscape.org/) -->

<svg
   width="40"
   height="40"
   viewBox="0 0 40 40"
   version="1.1"
   id="svg2"
   sodipodi:docname="info-icon.svg"
   inkscape:version="1.3.2 (091e20e, 2023-11-25, custom)"
   xmlns:inkscape="http://www.inkscape.org/namespaces/inkscape"
   xmlns:sodipodi="http://sodipodi.sourceforge.net/DTD/sodipodi-0.dtd"
   xmlns="http://www.w3.org/2000/svg"
   xmlns:svg="http://www.w3.org/2000/svg">
  <defs
     id="defs2" />
  <sodipodi:namedview
     id="namedview2"
     pagecolor="#ffffff"
     bordercolor="#000000"
     borderopacity="0.25"
     inkscape:showpageshadow="2"
     inkscape:pageopacity="0.0"
     inkscape:pagecheckerboard="0"
     inkscape:deskcolor="#d1d1d1"
     inkscape:zoom="14.371945"
     inkscape:cx="14.472641"
     inkscape:cy="18.195171"
     inkscape:window-width="1920"
     inkscape:window-height="1009"
     inkscape:window-x="-8"
     inkscape:window-y="-8"
     inkscape:window-maximized="1"
     inkscape:current-layer="svg2" />
  <g
     transform="matrix(1.8897638,0,0,1.8897638,-118.41648,-152.93431)"
     id="g2">
    <circle
       style="fill:#02a1fb;fill-opacity:1;stroke:none;stroke-width:0.79375;stroke-linecap:round;stroke-linejoin:round"
       id="path1"
       cx="73.245384"
       cy="91.51107"
       r="10.583333" />
    <circle
       style="fill:#ffffff;fill-opacity:1;stroke:none;stroke-width:1.1515;stroke-linecap:round;stroke-linejoin:round"
       id="path4"
       cx="73.248665"
       cy="97.562645"
       r="1.6629077" />
    <path
       style="vector-effect:non-scaling-stroke;fill:#ffffff;fill-opacity:1;stroke:none;stroke-width:0.264583;stroke-linecap:round;stroke-linejoin:round;stroke-dasharray:none;-inkscape-stroke:hairline"
       d="m 70.003571,89.926175 c -0.632694,-0.07029 -1.182622,-0.453599 -1.320119,-1.124256 -0.197391,-0.962798 0.582837,-2.473278 1.550061,-3.191118 1.187113,-0.881033 2.667725,-1.138698 4.258294,-0.883231 0.577302,0.09272 2.264634,0.748887 2.889908,2.123032 0.409774,0.900546 0.606858,2.047091 -0.258316,3.366176 -0.583973,0.890353 -1.911737,1.684669 -2.462073,2.470147 -0.286777,0.409307 -0.179494,0.834661 -0.43746,1.343761 -0.23278,0.459394 -0.676535,0.704064 -1.156834,0.706619 -0.758802,0.004 -1.108982,-0.418451 -1.271397,-0.645788 -0.261224,-0.365645 -0.322934,-1.44549 0.137231,-2.437857 0.330836,-0.713464 1.010552,-1.308614 1.753662,-1.930848 0.261601,-0.219048 0.771193,-0.724573 0.917313,-1.09359 0.162407,-0.410149 -0.01884,-1.077396 -0.734993,-1.348827 -0.374322,-0.141873 -1.272783,-0.147016 -1.597517,0.220488 -0.674011,0.762781 -0.643453,1.495645 -1.035389,1.945034 -0.344256,0.394719 -0.867075,0.516342 -1.232372,0.480258 0,0 10e-7,0 10e-7,0 z"
       id="path2" />
  </g>
</svg>
